<svg aria-hidden="true" style="position: absolute; width: 0; height: 0; overflow: hidden;" version="1.1"
     xmlns="http://www.w3.org/2000/svg" xmlns:xlink="http://www.w3.org/1999/xlink">
    <defs>
        <symbol id="icon-command" viewBox="0 0 24 24">
            <title>command</title>
            <path d="M18 14h-2v-4h2c2.2 0 4-1.8 4-4s-1.8-4-4-4-4 1.8-4 4v2h-4v-2c0-2.2-1.8-4-4-4s-4 1.8-4 4 1.8 4 4 4h2v4h-2c-2.2 0-4 1.8-4 4s1.8 4 4 4 4-1.8 4-4v-2h4v2c0 2.2 1.8 4 4 4s4-1.8 4-4-1.8-4-4-4zM16 6c0-1.1 0.9-2 2-2s2 0.9 2 2-0.9 2-2 2h-2v-2zM8 18c0 1.1-0.9 2-2 2s-2-0.9-2-2 0.9-2 2-2h2v2zM8 8h-2c-1.1 0-2-0.9-2-2s0.9-2 2-2 2 0.9 2 2v2zM14 14h-4v-4h4v4zM18 20c-1.1 0-2-0.9-2-2v-2h2c1.1 0 2 0.9 2 2s-0.9 2-2 2z"></path>
        </symbol>
        <symbol id="icon-mail" viewBox="0 0 24 24">
            <title>mail</title>
            <path d="M20 3h-16c-1.7 0-3 1.3-3 3v12c0 1.7 1.3 3 3 3h16c1.7 0 3-1.3 3-3v-12c0-1.7-1.3-3-3-3zM4 5h16c0.4 0 0.7 0.2 0.9 0.6l-8.9 6.2-8.9-6.2c0.2-0.4 0.5-0.6 0.9-0.6zM20 19h-16c-0.6 0-1-0.4-1-1v-10.1l8.4 5.9c0.2 0.1 0.4 0.2 0.6 0.2s0.4-0.1 0.6-0.2l8.4-5.9v10.1c0 0.6-0.4 1-1 1z"></path>
        </symbol>
        <symbol id="icon-arrow-right" viewBox="0 0 24 24">
            <title>arrow-right</title>
            <path d="M19.9 12.4c0.1-0.2 0.1-0.5 0-0.8-0.1-0.1-0.1-0.2-0.2-0.3l-7-7c-0.4-0.4-1-0.4-1.4 0s-0.4 1 0 1.4l5.3 5.3h-11.6c-0.6 0-1 0.4-1 1s0.4 1 1 1h11.6l-5.3 5.3c-0.4 0.4-0.4 1 0 1.4 0.2 0.2 0.5 0.3 0.7 0.3s0.5-0.1 0.7-0.3l7-7c0.1-0.1 0.2-0.2 0.2-0.3z"></path>
        </symbol>
        <symbol id="icon-twitter" viewBox="0 0 24 24">
            <title>twitter</title>
            <path d="M23.6 2.2c-0.3-0.2-0.8-0.2-1.1 0-0.7 0.5-1.5 0.9-2.3 1.2-2-1.8-5.1-1.9-7.2-0.1-1.3 1.1-2 2.6-2 4.2-2.9-0.2-5.5-1.7-7.2-4.1-0.2-0.3-0.5-0.4-0.9-0.4s-0.7 0.3-0.8 0.6c-0.1 0.1-1.1 2.5-1 5.4 0.1 2.5 1.1 5.7 4.8 8-1.5 0.7-3.2 1-4.9 1-0.4 0-0.9 0.3-1 0.7s0.1 0.9 0.5 1.1c2.5 1.4 5.2 2.1 7.7 2.1s4.9-0.6 7.1-1.9c4.3-2.4 6.7-7 6.7-12.5 0-0.2 0-0.3 0-0.5 1-1.1 1.7-2.4 2-3.8 0.1-0.4-0.1-0.8-0.4-1zM20.2 6c-0.2 0.2-0.3 0.6-0.3 0.9 0.1 0.2 0.1 0.4 0.1 0.6 0 4.8-2.1 8.7-5.7 10.8-2.8 1.6-6.1 2-9.4 1.2 1.3-0.4 2.5-0.9 3.6-1.7 0.4-0.2 0.5-0.5 0.5-0.9s-0.3-0.7-0.6-0.8c-5.8-2.6-5.6-7.5-5-10 2.2 2.2 5.3 3.5 8.6 3.4 0.5 0 1-0.5 1-1v-1c0-1 0.4-2 1.2-2.7 1.4-1.3 3.7-1.1 4.9 0.3 0.3 0.3 0.7 0.4 1 0.3 0.2-0.1 0.5-0.1 0.7-0.2-0.2 0.3-0.4 0.5-0.6 0.8z"></path>
        </symbol>
    </defs>
</svg>
