<svg aria-hidden="true" style="position: absolute; width: 0; height: 0; overflow: hidden;" version="1.1"
     xmlns="http://www.w3.org/2000/svg" xmlns:xlink="http://www.w3.org/1999/xlink">
    <defs>
        <symbol id="icon-mail" viewBox="0 0 24 24">
            <title>mail</title>
            <path d="M20 3h-16c-1.7 0-3 1.3-3 3v12c0 1.7 1.3 3 3 3h16c1.7 0 3-1.3 3-3v-12c0-1.7-1.3-3-3-3zM4 5h16c0.4 0 0.7 0.2 0.9 0.6l-8.9 6.2-8.9-6.2c0.2-0.4 0.5-0.6 0.9-0.6zM20 19h-16c-0.6 0-1-0.4-1-1v-10.1l8.4 5.9c0.2 0.1 0.4 0.2 0.6 0.2s0.4-0.1 0.6-0.2l8.4-5.9v10.1c0 0.6-0.4 1-1 1z"></path>
        </symbol>
        <symbol id="icon-arrow-right" viewBox="0 0 24 24">
            <title>arrow-right</title>
            <path d="M19.9 12.4c0.1-0.2 0.1-0.5 0-0.8-0.1-0.1-0.1-0.2-0.2-0.3l-7-7c-0.4-0.4-1-0.4-1.4 0s-0.4 1 0 1.4l5.3 5.3h-11.6c-0.6 0-1 0.4-1 1s0.4 1 1 1h11.6l-5.3 5.3c-0.4 0.4-0.4 1 0 1.4 0.2 0.2 0.5 0.3 0.7 0.3s0.5-0.1 0.7-0.3l7-7c0.1-0.1 0.2-0.2 0.2-0.3z"></path>
        </symbol>
        <symbol id="icon-twitter" viewBox="0 0 24 24">
            <title>twitter</title>
            <path d="M23.6 2.2c-0.3-0.2-0.8-0.2-1.1 0-0.7 0.5-1.5 0.9-2.3 1.2-2-1.8-5.1-1.9-7.2-0.1-1.3 1.1-2 2.6-2 4.2-2.9-0.2-5.5-1.7-7.2-4.1-0.2-0.3-0.5-0.4-0.9-0.4s-0.7 0.3-0.8 0.6c-0.1 0.1-1.1 2.5-1 5.4 0.1 2.5 1.1 5.7 4.8 8-1.5 0.7-3.2 1-4.9 1-0.4 0-0.9 0.3-1 0.7s0.1 0.9 0.5 1.1c2.5 1.4 5.2 2.1 7.7 2.1s4.9-0.6 7.1-1.9c4.3-2.4 6.7-7 6.7-12.5 0-0.2 0-0.3 0-0.5 1-1.1 1.7-2.4 2-3.8 0.1-0.4-0.1-0.8-0.4-1zM20.2 6c-0.2 0.2-0.3 0.6-0.3 0.9 0.1 0.2 0.1 0.4 0.1 0.6 0 4.8-2.1 8.7-5.7 10.8-2.8 1.6-6.1 2-9.4 1.2 1.3-0.4 2.5-0.9 3.6-1.7 0.4-0.2 0.5-0.5 0.5-0.9s-0.3-0.7-0.6-0.8c-5.8-2.6-5.6-7.5-5-10 2.2 2.2 5.3 3.5 8.6 3.4 0.5 0 1-0.5 1-1v-1c0-1 0.4-2 1.2-2.7 1.4-1.3 3.7-1.1 4.9 0.3 0.3 0.3 0.7 0.4 1 0.3 0.2-0.1 0.5-0.1 0.7-0.2-0.2 0.3-0.4 0.5-0.6 0.8z"></path>
        </symbol>
        <symbol id="icon-globe" viewBox="0 0 24 24">
            <title>globe</title>
            <path d="M12 1c-6.1 0-11 4.9-11 11s4.9 11 11 11 11-4.9 11-11-4.9-11-11-11zM20.9 11h-4c-0.2-2.8-1.1-5.4-2.7-7.7 3.6 0.9 6.3 4 6.7 7.7zM9.1 13h5.9c-0.3 2.7-1.3 5.3-2.9 7.4-1.8-2.1-2.8-4.7-3-7.4zM9.1 11c0.3-2.7 1.3-5.3 2.9-7.4 1.7 2.2 2.7 4.8 2.9 7.4h-5.8zM9.7 3.3c-1.5 2.3-2.4 4.9-2.6 7.7h-4c0.4-3.7 3.1-6.8 6.6-7.7zM3.1 13h4c0.2 2.8 1.1 5.4 2.7 7.7-3.6-0.9-6.3-4-6.7-7.7zM14.3 20.7c1.5-2.3 2.4-4.9 2.7-7.7h4c-0.5 3.7-3.2 6.8-6.7 7.7z"></path>
        </symbol>
        <symbol id="icon-check" viewBox="0 0 24 24">
            <title>check</title>
            <path d="M20.7 5.3c-0.4-0.4-1-0.4-1.4 0l-10.3 10.3-4.3-4.3c-0.4-0.4-1-0.4-1.4 0s-0.4 1 0 1.4l5 5c0.2 0.2 0.4 0.3 0.7 0.3s0.5-0.1 0.7-0.3l11-11c0.4-0.4 0.4-1 0-1.4z"></path>
        </symbol>
        <symbol id="icon-sun" viewBox="0 0 24 24">
            <title>sun</title>
            <path d="M12 6c-3.3 0-6 2.7-6 6s2.7 6 6 6 6-2.7 6-6-2.7-6-6-6zM12 16c-2.2 0-4-1.8-4-4s1.8-4 4-4c2.2 0 4 1.8 4 4s-1.8 4-4 4z"></path>
            <path d="M12 4c0.6 0 1-0.4 1-1v-2c0-0.6-0.4-1-1-1s-1 0.4-1 1v2c0 0.6 0.4 1 1 1z"></path>
            <path d="M12 20c-0.6 0-1 0.4-1 1v2c0 0.6 0.4 1 1 1s1-0.4 1-1v-2c0-0.6-0.4-1-1-1z"></path>
            <path d="M4.9 6.3c0.2 0.2 0.5 0.3 0.7 0.3s0.5-0.1 0.7-0.3c0.4-0.4 0.4-1 0-1.4l-1.4-1.4c-0.4-0.4-1-0.4-1.4 0s-0.4 1 0 1.4l1.4 1.4z"></path>
            <path d="M19.1 17.7c-0.4-0.4-1-0.4-1.4 0s-0.4 1 0 1.4l1.4 1.4c0.2 0.2 0.5 0.3 0.7 0.3s0.5-0.1 0.7-0.3c0.4-0.4 0.4-1 0-1.4l-1.4-1.4z"></path>
            <path d="M4 12c0-0.6-0.4-1-1-1h-2c-0.6 0-1 0.4-1 1s0.4 1 1 1h2c0.6 0 1-0.4 1-1z"></path>
            <path d="M23 11h-2c-0.6 0-1 0.4-1 1s0.4 1 1 1h2c0.6 0 1-0.4 1-1s-0.4-1-1-1z"></path>
            <path d="M4.9 17.7l-1.4 1.4c-0.4 0.4-0.4 1 0 1.4 0.2 0.2 0.5 0.3 0.7 0.3s0.5-0.1 0.7-0.3l1.4-1.4c0.4-0.4 0.4-1 0-1.4s-1-0.4-1.4 0z"></path>
            <path d="M18.4 6.6c0.3 0 0.5-0.1 0.7-0.3l1.4-1.4c0.4-0.4 0.4-1 0-1.4s-1-0.4-1.4 0l-1.4 1.4c-0.4 0.4-0.4 1 0 1.4 0.1 0.2 0.4 0.3 0.7 0.3z"></path>
        </symbol>
        <symbol id="icon-cloud" viewBox="0 0 24 24">
            <title>cloud</title>
            <path d="M18 9h-0.5c-0.7-2-2.1-3.7-3.9-4.8-2.1-1.2-4.5-1.6-6.8-1-2.4 0.7-4.3 2.2-5.6 4.2-1.2 2.1-1.6 4.5-1 6.8 1 4 4.6 6.8 8.7 6.8 0 0 0 0 0 0h9c3.3 0 6-2.7 6-6s-2.6-6-5.9-6zM18 19h-9c0 0 0 0 0 0-3.2 0-6-2.2-6.8-5.2-0.5-1.9-0.2-3.7 0.8-5.4s2.5-2.8 4.3-3.2c0.5-0.1 1.1-0.2 1.7-0.2 3.1 0 6 2.1 6.8 5.3 0.1 0.4 0.5 0.8 1 0.8h1.2c2.2 0 4 1.8 4 4 0 2.1-1.8 3.9-4 3.9z"></path>
        </symbol>
        <symbol id="icon-cloud-lightning" viewBox="0 0 24 24">
            <title>cloud-lightning</title>
            <path d="M23.9 10.8c-0.6-2.8-3.1-4.8-5.9-4.8 0 0 0 0 0 0h-0.5c-1.5-4.4-6.2-6.9-10.7-5.7-2.4 0.6-4.3 2.1-5.6 4.1-1.2 2.1-1.6 4.5-1 6.8 0.6 2.4 2.2 4.4 4.4 5.6 0.5 0.3 1.1 0.2 1.4-0.3s0.1-1.1-0.4-1.4c-1.7-0.9-2.9-2.5-3.4-4.4-0.5-1.8-0.2-3.6 0.8-5.3 0.9-1.6 2.5-2.8 4.3-3.2 3.7-1 7.6 1.3 8.5 5 0.1 0.4 0.5 0.8 1 0.8h1.2c0 0 0 0 0 0 1.9 0 3.5 1.3 3.9 3.2 0.4 2.2-1 4.3-3.1 4.7-0.5 0.1-0.9 0.6-0.8 1.2 0.1 0.5 0.5 0.8 1 0.8 0.1 0 0.1 0 0.2 0 3.2-0.7 5.3-3.9 4.7-7.1z"></path>
            <path d="M15 16h-4.1l3-4.4c0.3-0.5 0.2-1.1-0.3-1.4s-1.1-0.2-1.4 0.3l-4 6c-0.2 0.3-0.2 0.7 0 1 0.1 0.3 0.4 0.5 0.8 0.5h4.1l-3 4.4c-0.3 0.5-0.2 1.1 0.3 1.4 0.2 0.1 0.4 0.2 0.6 0.2 0.3 0 0.6-0.2 0.8-0.4l4-6c0.2-0.3 0.2-0.7 0-1s-0.4-0.6-0.8-0.6z"></path>
        </symbol>
        <symbol id="icon-cloud-off" viewBox="0 0 24 24">
            <title>cloud-off</title>
            <path d="M9.6 5c3 0.3 5.4 2.4 6.2 5.2 0.1 0.4 0.5 0.8 1 0.8h1.2c0 0 0 0 0 0 0.5 0 1.1 0.1 1.6 0.3 2 0.9 3 3.2 2.1 5.2-0.2 0.5 0 1.1 0.5 1.3 0.1 0.1 0.3 0.1 0.4 0.1 0.4 0 0.8-0.2 0.9-0.6 1.3-3-0.1-6.6-3.2-7.9-0.7-0.2-1.5-0.4-2.3-0.4h-0.5c-1.2-3.3-4.2-5.7-7.7-6-0.6 0-1 0.4-1.1 0.9-0.1 0.6 0.4 1 0.9 1.1z"></path>
            <path d="M1.7 0.3c-0.4-0.4-1-0.4-1.4 0s-0.4 1 0 1.4l3.1 3.1c-1.5 1.2-2.6 2.8-3.2 4.7-0.7 2.3-0.4 4.7 0.8 6.8 1.6 2.9 4.6 4.7 7.9 4.7 0 0 0.1 0 0.1 0h9c0.5 0 0.9-0.1 1.4-0.2l2.9 2.9c0.2 0.2 0.5 0.3 0.7 0.3s0.5-0.1 0.7-0.3c0.4-0.4 0.4-1 0-1.4l-22-22zM9 19c-2.6 0.1-5-1.3-6.2-3.6-0.9-1.6-1.1-3.5-0.6-5.3 0.4-1.6 1.4-2.9 2.7-3.8l12.7 12.7h-8.6z"></path>
        </symbol>
        <symbol id="icon-cloud-rain" viewBox="0 0 24 24">
            <title>cloud-rain</title>
            <path d="M16 12c-0.6 0-1 0.4-1 1v8c0 0.6 0.4 1 1 1s1-0.4 1-1v-8c0-0.6-0.4-1-1-1z"></path>
            <path d="M8 12c-0.6 0-1 0.4-1 1v8c0 0.6 0.4 1 1 1s1-0.4 1-1v-8c0-0.6-0.4-1-1-1z"></path>
            <path d="M12 14c-0.6 0-1 0.4-1 1v8c0 0.6 0.4 1 1 1s1-0.4 1-1v-8c0-0.6-0.4-1-1-1z"></path>
            <path d="M23.5 9.6c-1-2.2-3.1-3.6-5.5-3.6h-0.5c-1.5-4.4-6.2-6.9-10.7-5.7-4.9 1.2-7.8 6.1-6.5 11 0.5 1.9 1.6 3.6 3.1 4.8 0.4 0.3 1.1 0.3 1.4-0.2 0.3-0.4 0.3-1.1-0.2-1.4-1.2-0.9-2-2.3-2.4-3.7-1-3.7 1.3-7.6 5-8.5 3.7-1 7.6 1.3 8.5 5 0.1 0.4 0.5 0.8 1 0.8h1.3c1.6 0 3 0.9 3.7 2.4 0.4 1 0.5 2.1 0.1 3.1s-1.1 1.8-2.1 2.2c-0.5 0.2-0.7 0.8-0.5 1.3 0.2 0.4 0.5 0.6 0.9 0.6 0.1 0 0.3 0 0.4-0.1 1.5-0.6 2.6-1.8 3.2-3.3 0.5-1.6 0.4-3.2-0.2-4.7z"></path>
        </symbol>
        <symbol id="icon-send" viewBox="0 0 24 24">
            <title>send</title>
            <path d="M23 1.9c0-0.1 0-0.2-0.1-0.3 0 0 0-0.1 0-0.1 0-0.1-0.1-0.2-0.2-0.3s-0.2-0.1-0.3-0.2c0 0-0.1 0-0.1 0-0.1 0-0.2 0-0.3-0.1 0 0.1 0 0.1 0 0.1-0.1 0-0.2 0-0.3 0.1l-20 7c-0.4 0.1-0.7 0.4-0.7 0.9 0 0.4 0.2 0.8 0.6 1l8.6 3.8 3.8 8.6c0.2 0.4 0.5 0.6 0.9 0.6 0 0 0 0 0 0 0.4 0 0.8-0.3 0.9-0.7l7-20c0.2-0.1 0.2-0.2 0.2-0.4 0 0.1 0 0.1 0 0zM18.2 4.4l-7.4 7.4-6.1-2.7 13.5-4.7zM14.9 19.3l-2.7-6.1 7.4-7.4-4.7 13.5z"></path>
        </symbol>
    </defs>
</svg>
