<svg xmlns="http://www.w3.org/2000/svg" xmlns:xlink="http://www.w3.org/1999/xlink" version="1.1" id="Layer_1" x="0px" y="0px" width="312px" height="137px" viewBox="22 20 312 137" enable-background="new 22 20 312 137" xml:space="preserve">
<path d="M334,145c0,6.627-5.373,12-12,12H34c-6.627,0-12-5.373-12-12V32c0-6.627,5.373-12,12-12h288c6.627,0,12,5.373,12,12V145z"/>
<g>
	<path fill="#FFFFFF" d="M68.663,96.064c2.696,0,5.168,0.975,7.086,2.586l2.61-3.111c-2.624-2.206-6.007-3.538-9.696-3.538   c-8.322,0-15.093,6.771-15.093,15.093s6.771,15.094,15.093,15.094c3.689,0,7.072-1.332,9.696-3.539l-2.61-3.11   c-1.918,1.612-4.39,2.585-7.086,2.585c-6.081,0-11.029-4.948-11.029-11.029C57.634,101.014,62.582,96.064,68.663,96.064z"/>
	<path fill="#FFFFFF" d="M152.215,92.873h-8.127c-1.122,0-2.032,0.91-2.032,2.031v24.381c0,1.123,0.91,2.031,2.032,2.031h8.127   c7.842,0,14.222-6.379,14.222-14.223C166.437,99.251,160.057,92.873,152.215,92.873z M152.215,117.254h-6.096V96.938h6.096   c5.602,0,10.159,4.557,10.159,10.158S157.816,117.254,152.215,117.254z"/>
	<path fill="#FFFFFF" d="M177.438,94.904v24.381c0,1.123,0.91,2.031,2.032,2.031h16.932v-4.063h-14.899v-8.127h9.481v-4.063h-9.481   v-8.127h14.899v-4.062H179.47C178.349,92.873,177.438,93.783,177.438,94.904z"/>
	<path fill="#FFFFFF" d="M238.941,94.904v24.381c0,1.123,0.908,2.031,2.031,2.031h16.932v-4.063h-14.899v-8.127h9.481v-4.063h-9.481   v-8.127h14.899v-4.062h-16.932C239.852,92.873,238.941,93.783,238.941,94.904z"/>
	<path fill="#FFFFFF" d="M219.604,92.873H210.8c-1.122,0-2.032,0.91-2.032,2.031v26.414h4.063v-12.191h6.772   c4.48,0,8.127-3.646,8.127-8.127S224.086,92.873,219.604,92.873z M219.604,105.062h-6.771v-8.127h6.771   c2.242,0,4.063,1.822,4.063,4.063C223.668,103.241,221.846,105.062,219.604,105.062z"/>
	<path fill="#FFFFFF" d="M289.67,92.873v20.801l-16.725-20.07c-0.549-0.658-1.448-0.901-2.254-0.609   c-0.805,0.292-1.34,1.055-1.34,1.91v26.414h4.063v-20.801l16.726,20.069c0.395,0.474,0.969,0.731,1.562,0.731   c0.231,0,0.466-0.041,0.69-0.123c0.806-0.291,1.342-1.055,1.342-1.91V92.873H289.67z"/>
	<path fill="#FFFFFF" d="M130.514,100.168c-0.01-0.053-0.02-0.105-0.033-0.156c-0.008-0.031-0.02-0.06-0.029-0.091   c-0.015-0.046-0.029-0.091-0.047-0.136c-0.014-0.031-0.027-0.061-0.042-0.09c-0.021-0.043-0.041-0.084-0.063-0.125   c-0.018-0.028-0.035-0.057-0.054-0.086c-0.024-0.039-0.051-0.075-0.078-0.112c-0.021-0.026-0.042-0.054-0.064-0.08   c-0.029-0.035-0.061-0.067-0.092-0.101c-0.025-0.025-0.049-0.049-0.075-0.073c-0.033-0.031-0.069-0.06-0.105-0.089   c-0.027-0.021-0.055-0.043-0.084-0.063c-0.01-0.008-0.02-0.017-0.031-0.022l-19.81-13.208c-0.626-0.417-1.44-0.417-2.065,0   L88.029,98.941c-0.011,0.008-0.02,0.017-0.03,0.023c-0.029,0.02-0.057,0.042-0.085,0.064c-0.036,0.027-0.071,0.057-0.105,0.088   c-0.025,0.023-0.05,0.047-0.074,0.072c-0.032,0.033-0.062,0.066-0.093,0.102c-0.022,0.025-0.043,0.053-0.063,0.08   c-0.028,0.037-0.054,0.074-0.079,0.113c-0.018,0.029-0.036,0.057-0.053,0.086c-0.023,0.041-0.044,0.082-0.063,0.123   c-0.015,0.031-0.028,0.061-0.042,0.091c-0.018,0.044-0.033,0.09-0.048,0.136c-0.01,0.031-0.021,0.061-0.028,0.092   c-0.014,0.051-0.023,0.102-0.033,0.155c-0.005,0.026-0.011,0.054-0.015,0.08c-0.011,0.081-0.017,0.161-0.017,0.244v13.207   c0,0.081,0.006,0.163,0.017,0.243c0.004,0.026,0.01,0.054,0.015,0.08c0.01,0.053,0.02,0.104,0.033,0.155   c0.008,0.031,0.019,0.06,0.028,0.091c0.015,0.047,0.03,0.092,0.048,0.137c0.014,0.031,0.027,0.061,0.042,0.091   c0.02,0.042,0.04,0.083,0.063,0.124c0.017,0.029,0.035,0.058,0.053,0.086c0.025,0.039,0.051,0.076,0.079,0.113   c0.021,0.027,0.041,0.054,0.063,0.08c0.03,0.035,0.061,0.067,0.093,0.102c0.024,0.025,0.049,0.049,0.074,0.072   c0.034,0.031,0.069,0.06,0.105,0.088c0.028,0.021,0.056,0.044,0.085,0.064c0.011,0.008,0.02,0.017,0.03,0.022l19.811,13.207   c0.312,0.209,0.672,0.313,1.032,0.313s0.721-0.104,1.033-0.313l19.81-13.207c0.012-0.007,0.021-0.017,0.031-0.022   c0.029-0.021,0.057-0.043,0.084-0.064c0.036-0.028,0.072-0.057,0.105-0.088c0.026-0.023,0.05-0.047,0.075-0.072   c0.031-0.033,0.062-0.066,0.092-0.102c0.022-0.026,0.044-0.053,0.064-0.08c0.027-0.037,0.054-0.074,0.078-0.113   c0.019-0.028,0.036-0.057,0.054-0.086c0.022-0.041,0.043-0.082,0.063-0.124c0.015-0.03,0.028-0.06,0.042-0.091   c0.018-0.045,0.032-0.09,0.047-0.137c0.01-0.031,0.021-0.06,0.029-0.091c0.014-0.051,0.023-0.103,0.033-0.155   c0.004-0.026,0.011-0.054,0.015-0.08c0.01-0.08,0.017-0.162,0.017-0.243v-13.207c0-0.083-0.007-0.163-0.017-0.244   C130.524,100.223,130.518,100.195,130.514,100.168z M108.872,111.501l-6.587-4.405l6.587-4.406l6.588,4.406L108.872,111.501z    M107.01,99.454l-8.075,5.401l-6.518-4.36l14.593-9.729V99.454z M95.585,107.096l-4.66,3.116v-6.233L95.585,107.096z    M98.935,109.336l8.075,5.4v8.688l-14.593-9.729L98.935,109.336z M110.734,114.736l8.075-5.4l6.519,4.359l-14.594,9.729V114.736   L110.734,114.736z M122.16,107.096l4.66-3.117v6.232L122.16,107.096z M118.81,104.854l-8.075-5.4v-8.688l14.594,9.729   L118.81,104.854z"/>
</g>
<g enable-background="new    ">
	<path fill="#F1F2F2" d="M96.977,66.056h-0.11l-7.039-10.323v15.623h-2.125V52.033h2.208l7.039,10.545l7.039-10.545h2.208v19.322   h-2.181V55.704L96.977,66.056z"/>
	<path fill="#F1F2F2" d="M131.652,71.355h-2.346l-2.264-5.106h-10.517l-2.291,5.106h-2.236l8.805-19.46h2.042L131.652,71.355z    M121.798,54.435l-4.417,9.854h8.806L121.798,54.435z"/>
	<path fill="#F1F2F2" d="M144.162,71.355h-6.708V52.033h6.708c6.073,0,10.268,4.168,10.268,9.634   C154.43,67.132,150.235,71.355,144.162,71.355z M144.162,54.048h-4.527v15.293h4.527c4.886,0,8.005-3.312,8.005-7.619   C152.167,57.416,149.048,54.048,144.162,54.048z"/>
	<path fill="#F1F2F2" d="M175,54.021h-11.786v6.598h10.544v1.987h-10.544v6.763h11.924v1.987h-14.105V52.033H175V54.021z"/>
	<path fill="#F1F2F2" d="M205.674,54.048h-11.703v6.901h10.461v1.987h-10.461v8.419h-2.182V52.033h13.885V54.048z"/>
	<path fill="#F1F2F2" d="M220.448,71.687c-5.879,0-9.826-4.609-9.826-9.965c0-5.354,4.002-10.02,9.882-10.02   c5.879,0,9.826,4.609,9.826,9.965C230.33,67.021,226.328,71.687,220.448,71.687z M220.448,53.717c-4.416,0-7.563,3.533-7.563,7.95   c0,4.416,3.202,8.005,7.619,8.005c4.416,0,7.562-3.533,7.562-7.95C228.066,57.306,224.865,53.717,220.448,53.717z"/>
	<path fill="#F1F2F2" d="M250.237,71.355l-5.604-7.508h-5.521v7.508h-2.181V52.033h8.309c4.251,0,6.983,2.291,6.983,5.77   c0,3.229-2.208,5.106-5.244,5.658l5.935,7.895H250.237z M245.076,54.048h-5.963v7.84h5.935c2.898,0,4.969-1.49,4.969-4.003   C250.017,55.483,248.195,54.048,245.076,54.048z"/>
</g>
</svg>