<svg xmlns="http://www.w3.org/2000/svg" viewBox="0 0 141 37" enable-background="new 0 0 141 37"><path fill="#3d3f44" d="M102.2 10h2.9c1.2 0 2 .1 2.7.4.6.3 1.1.7 1.5 1.3.4.6.5 1.2.5 1.9s-.2 1.2-.5 1.8c-.3.5-.8 1-1.4 1.3.8.3 1.3.6 1.7.9.4.3.7.8 1 1.3.2.5.3 1 .3 1.6 0 1.2-.4 2.2-1.3 3-.9.8-2 1.2-3.4 1.2h-4v-14.7zm1.4 1.5v4.7h.8c1 0 1.8-.1 2.2-.3.5-.2.9-.5 1.1-.9.3-.4.4-.9.4-1.4 0-.7-.2-1.2-.7-1.6-.5-.4-1.2-.6-2.2-.6h-1.6zm0 6.2v5.6h1.8c1.1 0 1.8-.1 2.3-.3.5-.2.9-.5 1.2-1 .3-.4.5-.9.5-1.4 0-.7-.2-1.2-.6-1.7-.4-.5-1-.8-1.7-1-.5-.1-1.4-.2-2.6-.2h-.9zM113.4 10h1.4v14.7h-1.4v-14.7zM122.8 13.6c1.7 0 3 .6 4.1 1.8 1 1.1 1.5 2.4 1.5 3.9s-.5 2.8-1.6 4c-1 1.1-2.4 1.7-4 1.7-1.7 0-3-.6-4.1-1.7-1-1.1-1.6-2.5-1.6-4s.5-2.8 1.5-3.9c1.2-1.2 2.5-1.8 4.2-1.8zm0 1.4c-1.2 0-2.1.4-3 1.3-.8.9-1.2 1.9-1.2 3.1 0 .8.2 1.5.6 2.2.4.7.9 1.2 1.5 1.6.6.4 1.3.6 2.1.6s1.5-.2 2.1-.6c.6-.4 1.2-.9 1.5-1.6.4-.7.6-1.4.6-2.2 0-1.2-.4-2.3-1.2-3.1-.9-.9-1.9-1.3-3-1.3zM139.7 13.9h1.3v8.7c0 1.5-.1 2.6-.4 3.3-.4 1-1 1.8-1.8 2.3-.9.5-1.9.8-3.1.8-.9 0-1.7-.1-2.4-.4-.7-.3-1.3-.6-1.7-1.1-.4-.4-.9-1.1-1.2-1.9h1.5c.4.7.9 1.3 1.5 1.6.6.3 1.4.5 2.3.5.9 0 1.7-.2 2.3-.5.6-.4 1.1-.8 1.4-1.3.3-.5.4-1.4.4-2.6v-.6c-.5.7-1.1 1.2-1.9 1.5-.7.4-1.5.5-2.3.5-1 0-1.9-.2-2.7-.7-.8-.5-1.5-1.2-2-2s-.7-1.8-.7-2.8c0-1 .2-1.9.7-2.8.5-.9 1.1-1.6 2-2.1.8-.5 1.7-.8 2.7-.8.8 0 1.5.2 2.2.5.7.3 1.3.9 2 1.7v-1.8zm-4 1c-.8 0-1.5.2-2.1.6-.7.4-1.2.9-1.5 1.6-.4.7-.6 1.4-.6 2.2 0 1.2.4 2.2 1.2 3 .8.8 1.8 1.2 3 1.2s2.2-.4 3-1.2c.8-.8 1.1-1.8 1.1-3 0-.8-.2-1.6-.5-2.2-.3-.6-.8-1.2-1.5-1.5-.7-.5-1.4-.7-2.1-.7zM26.3 10.5h1.5v6.1h8.1v-6.1h1.5v14.7h-1.5v-7.1h-8.1v7.1h-1.5v-14.7zM50.6 14.3v10.8h-1.4v-1.9c-.6.7-1.2 1.2-2 1.6-.7.4-1.5.5-2.4.5-1.5 0-2.8-.6-3.9-1.7s-1.6-2.5-1.6-4.1c0-1.6.5-2.9 1.6-4s2.4-1.7 3.9-1.7c.9 0 1.7.2 2.4.6.7.4 1.3.9 1.9 1.7v-2h1.5zm-5.5 1.1c-.8 0-1.5.2-2.1.6-.6.4-1.2.9-1.6 1.6-.4.7-.6 1.4-.6 2.2 0 .8.2 1.5.6 2.2.4.7.9 1.2 1.6 1.6.7.4 1.4.6 2.1.6.8 0 1.5-.2 2.1-.6.7-.4 1.2-.9 1.6-1.6.4-.7.5-1.4.5-2.2 0-1.3-.4-2.3-1.2-3.1-.8-.9-1.8-1.3-3-1.3zM54.9 10.3h1.4v4h2.2v1.2h-2.2v9.6h-1.4v-9.6h-1.9v-1.2h1.9v-4zM69.6 21.6l1.2.6c-.4.8-.8 1.4-1.3 1.8-.5.5-1.1.8-1.7 1.1-.6.2-1.3.4-2.1.4-1.8 0-3.1-.6-4.1-1.7-1-1.2-1.5-2.5-1.5-3.9s.4-2.6 1.3-3.7c1.1-1.4 2.5-2.1 4.3-2.1 1.8 0 3.3.7 4.4 2.1.8 1 1.2 2.2 1.2 3.7h-9.7c0 1.3.4 2.3 1.2 3.1.8.8 1.7 1.2 2.9 1.2.5 0 1.1-.1 1.6-.3.5-.2 1-.4 1.3-.8.2-.3.6-.8 1-1.5zm0-2.9c-.2-.7-.5-1.3-.8-1.8-.4-.4-.8-.8-1.4-1.1-.6-.3-1.2-.4-1.8-.4-1.1 0-2 .3-2.7 1-.6.5-1 1.2-1.3 2.2h8zM73.3 13.9h1.4v1.9c.6-.7 1.2-1.3 1.8-1.7.7-.4 1.4-.6 2.2-.6.8 0 1.5.2 2.1.6.6.4 1.1 1 1.4 1.7.3.7.4 1.8.4 3.3v5.6h-1.4v-5.2c0-1.2-.1-2.1-.2-2.5-.2-.7-.5-1.3-.9-1.6-.5-.4-1-.5-1.8-.5s-1.6.3-2.2.8c-.7.6-1.1 1.2-1.3 2.1-.1.5-.2 1.5-.2 3v4h-1.4v-10.9zM95.9 13.9v10.8h-1.4v-1.9c-.6.7-1.2 1.2-1.9 1.6-.7.4-1.5.5-2.4.5-1.5 0-2.8-.6-3.9-1.7s-1.6-2.5-1.6-4.1c0-1.6.5-2.9 1.6-4s2.4-1.7 3.9-1.7c.9 0 1.7.2 2.4.6.7.4 1.3.9 1.9 1.7v-2h1.4zm-5.5 1.1c-.8 0-1.5.2-2.1.6-.7.4-1.2.9-1.6 1.6-.4.7-.6 1.4-.6 2.2 0 .8.2 1.5.6 2.2.4.7.9 1.2 1.6 1.6.7.4 1.4.6 2.1.6.8 0 1.5-.2 2.1-.6.7-.4 1.2-.9 1.6-1.6.4-.7.5-1.4.5-2.2 0-1.3-.4-2.3-1.2-3.1-.8-.9-1.8-1.3-3-1.3zM9.9 28c-5.5 0-9.9-4.5-9.9-10s4.4-10 9.9-10 9.9 4.5 9.9 10-4.4 10-9.9 10zm0-18.7c-4.8 0-8.6 3.9-8.6 8.7 0 4.8 3.9 8.7 8.6 8.7 4.8 0 8.6-3.9 8.6-8.7.1-4.8-3.8-8.7-8.6-8.7zM11.1 13.1c-.5-1-.8-2-.9-2.5v7.1c.2.1.4.3.4.6 0 .4-.3.7-.6.7-.4 0-.6-.3-.6-.7 0-.3.2-.5.5-.6v-7.1c-.1.6-.4 1.5-.9 2.5-1 1.5-1.9 2.9-1.9 2.9l.6 8.4s.6.6 2.2.6c1.7 0 2.2-.6 2.2-.6l.6-8.4c.1 0-.9-1.4-1.6-2.9z"></path></svg>