<svg xmlns="http://www.w3.org/2000/svg" xmlns:xlink="http://www.w3.org/1999/xlink" width="164px" height="35px" viewBox="0 0 164 35">
					<path fillrule="evenodd" d="M 163.38 34.34C 162.98 34.75 162.5 34.95 161.94 34.95 161.39 34.95 160.91 34.75 160.51 34.34 160.1 33.93 159.9 33.45 159.9 32.89 159.9 32.33 160.1 31.85 160.51 31.45 160.91 31.04 161.39 30.84 161.94 30.84 162.5 30.84 162.98 31.04 163.38 31.45 163.78 31.85 163.99 32.33 163.99 32.89 163.99 33.45 163.78 33.93 163.38 34.34ZM 144.04 30.26C 144.53 30.74 145.1 31.12 145.77 31.4 146.43 31.68 147.15 31.81 147.93 31.81 148.83 31.81 149.64 31.58 150.37 31.12 150.81 30.84 151.19 30.51 151.5 30.14 151.83 29.74 152.49 29.61 152.96 29.83 152.96 29.83 153.9 30.27 153.9 30.27 154.6 30.6 154.8 31.46 154.32 32.05 154.23 32.16 154.14 32.27 154.05 32.38 153.61 32.87 153.11 33.31 152.52 33.7 151.93 34.08 151.26 34.39 150.5 34.62 149.74 34.86 148.88 34.98 147.93 34.98 146.64 34.98 145.43 34.77 144.3 34.35 143.18 33.93 142.21 33.34 141.39 32.58 140.57 31.82 139.92 30.91 139.44 29.84 138.97 28.78 138.73 27.6 138.73 26.32 138.73 25.03 138.97 23.85 139.44 22.79 139.92 21.73 140.57 20.81 141.39 20.05 142.21 19.29 143.18 18.7 144.3 18.28 145.43 17.86 146.64 17.65 147.93 17.65 148.88 17.65 149.74 17.77 150.5 18.01 151.26 18.24 151.93 18.55 152.52 18.92 153.11 19.3 153.61 19.73 154.05 20.23 154.14 20.34 154.23 20.44 154.32 20.55 154.8 21.14 154.6 22.01 153.9 22.35 153.9 22.35 152.95 22.8 152.95 22.8 152.45 23.04 151.84 22.92 151.49 22.5 151.18 22.13 150.81 21.81 150.37 21.52 149.64 21.05 148.83 20.82 147.93 20.82 147.15 20.82 146.43 20.95 145.77 21.23 145.1 21.51 144.53 21.89 144.04 22.39 143.56 22.88 143.18 23.46 142.92 24.13 142.65 24.8 142.52 25.53 142.52 26.32 142.52 27.1 142.65 27.83 142.92 28.51 143.18 29.19 143.56 29.77 144.04 30.26ZM 129.71 35.01C 129.71 35.01 128.93 35.01 128.93 35.01 128.18 35.01 127.47 34.65 127.03 34.04 127.03 34.04 120.59 25.19 120.59 25.19 120.24 24.71 119.49 24.96 119.49 25.55 119.49 25.55 119.49 33.87 119.49 33.87 119.49 34.5 118.99 35.01 118.36 35.01 118.36 35.01 117.45 35.01 117.45 35.01 116.55 35.01 115.81 34.27 115.81 33.35 115.81 33.35 115.81 19.27 115.81 19.27 115.81 18.37 116.54 17.64 117.43 17.64 117.43 17.64 118.52 17.64 118.52 17.64 119.2 17.64 119.83 17.97 120.24 18.52 120.24 18.52 126.5 27.05 126.5 27.05 126.85 27.53 127.6 27.28 127.6 26.69 127.6 26.69 127.6 18.78 127.6 18.78 127.6 18.15 128.11 17.64 128.74 17.64 128.74 17.64 129.72 17.64 129.72 17.64 130.59 17.64 131.28 18.35 131.28 19.21 131.28 19.21 131.28 33.43 131.28 33.43 131.28 34.3 130.58 35.01 129.71 35.01ZM 105.3 35C 105.3 35 103.44 35 103.44 35 103.06 35 102.75 34.69 102.75 34.3 102.75 34.3 102.75 18.79 102.75 18.79 102.75 18.16 103.25 17.66 103.87 17.66 103.87 17.66 105.73 17.66 105.73 17.66 106.11 17.66 106.43 17.97 106.43 18.36 106.43 18.36 106.43 33.86 106.43 33.86 106.43 34.49 105.92 35 105.3 35ZM 82.14 33.32C 79.81 34.44 77.2 35 74.21 35 71.76 35 69.44 34.58 67.27 33.76 65.09 32.93 63.19 31.75 61.57 30.21 59.96 28.67 58.68 26.82 57.75 24.66 56.81 22.5 56.34 20.1 56.34 17.47 56.34 14.83 56.81 12.43 57.75 10.27 58.68 8.11 59.96 6.27 61.57 4.75 63.19 3.23 65.09 2.06 67.27 1.23 69.44 0.4 71.76-0.01 74.21-0.01 75.87-0.01 77.4 0.17 78.78 0.55 80.15 0.92 81.4 1.42 82.53 2.04 83.65 2.67 84.66 3.41 85.56 4.27 85.83 4.52 86.08 4.78 86.33 5.04 87.23 6.01 86.96 7.58 85.79 8.23 85.79 8.23 85.36 8.44 85.36 8.44 85.36 8.44 84.89 8.69 84.89 8.69 83.86 9.26 82.56 9.11 81.72 8.27 81.09 7.66 80.37 7.11 79.58 6.64 79.52 6.61 79.47 6.58 79.41 6.55 77.88 5.69 76.15 5.26 74.21 5.26 72.51 5.26 70.94 5.56 69.51 6.17 68.08 6.78 66.85 7.62 65.81 8.7 64.77 9.78 63.96 11.08 63.36 12.58 62.77 14.08 62.47 15.71 62.47 17.47 62.47 19.26 62.77 20.89 63.36 22.38 63.96 23.87 64.77 25.16 65.81 26.26 66.85 27.36 68.08 28.21 69.51 28.82 70.94 29.42 72.51 29.73 74.21 29.73 75.94 29.73 77.74 29.35 79.2 28.76 80.73 28.15 81.98 27.3 82.62 26.61 82.98 26.23 83.17 25.73 83.18 25.21 83.18 25.21 83.19 24.03 83.19 24.03 83.2 23.15 82.48 22.29 81.59 22.29 81.59 22.29 78.35 22.29 78.35 22.29 76.99 22.29 75.46 21.48 75.4 20.15 75.46 18.86 76.94 17.66 78.24 17.66 78.24 17.66 85.62 17.66 85.62 17.66 87.07 17.66 88.04 19 88.04 20.44 88.04 20.44 88.04 25.58 88.04 25.58 88.04 27.92 87.05 30.17 85.13 31.54 84.18 32.21 83.22 32.81 82.14 33.32ZM 40.21 35.01C 40.21 35.01 37.33 35.01 37.33 35.01 36.43 35.01 35.7 34.26 35.7 33.33 35.7 33.33 35.7 1.49 35.7 1.49 35.7 0.72 36.31 0.09 37.06 0.09 37.06 0.09 39.93 0.09 39.93 0.09 40.89 0.09 41.67 0.89 41.67 1.88 41.67 1.88 41.67 33.51 41.67 33.51 41.67 34.34 41.02 35.01 40.21 35.01ZM 19.33 35.01C 19.33 35.01 2.08 35.01 2.08 35.01 0.94 35.01 0.01 34.06 0.01 32.89 0.01 32.89 0.01 1.88 0.01 1.88 0.01 0.89 0.8 0.09 1.76 0.09 1.76 0.09 4.41 0.09 4.41 0.09 5.28 0.09 5.99 0.81 5.99 1.71 5.99 1.71 5.99 27.83 5.99 27.83 5.99 28.82 6.77 29.62 7.73 29.62 7.73 29.62 19.59 29.62 19.59 29.62 20.36 29.62 20.99 30.26 20.99 31.05 20.99 31.05 20.99 33.3 20.99 33.3 20.99 34.24 20.25 35.01 19.33 35.01Z" fill="rgb(31,7,5)"></path></svg>