<svg id="Qiita" xmlns="http://www.w3.org/2000/svg" viewBox="0 0 403.58 139.88"><defs><style>.cls-1{fill:#59bb0c;}</style></defs><title>アートボード 1</title><path class="cls-1" d="M105.19,120.72A65.59,65.59,0,0,1,67,133c-18.64,0-35.81-7.11-48.34-20A66.57,66.57,0,0,1,0,67C0,25.06,33.55,0,66,0c18.64,0,35.81,7.11,48.33,20a67.11,67.11,0,0,1,.1,92.78l18.5,18.5-8.57,8.57ZM66,12.16c-26.45,0-53.82,20.45-53.82,54.67,0,26.54,20.45,54,54.67,54,26,0,54-20.77,54-54.33C120.81,36,96.73,12.16,66,12.16Z"/><path class="cls-1" d="M164.26,129.92V38h11.48v91.92Zm5.57-103.51a9.78,9.78,0,0,1-9.65-9.64,9.65,9.65,0,0,1,19.29,0A9.77,9.77,0,0,1,169.83,26.42Z"/><path class="cls-1" d="M210.12,129.92V38H221.6v91.92ZM215.7,26.42a9.77,9.77,0,0,1-9.65-9.64,9.64,9.64,0,1,1,19.28,0A9.77,9.77,0,0,1,215.7,26.42Z"/><path class="cls-1" d="M289,131.79c-20.9,0-33.4-16.47-33.4-32.39V12.89h11.48V38h40.05V49.5H267.11V99.24a21.19,21.19,0,0,0,21.75,21.07,22.25,22.25,0,0,0,11-3l1.29-.74,5.73,9.85-1.26.76A32.4,32.4,0,0,1,289,131.79Z"/><path class="cls-1" d="M364.08,132.13c-30.68,0-49-24.4-49-48,0-30.68,24.4-49,48-49,12.12,0,22.07,4.11,29,11.93V38h11.48v91.92H392.1v-10C385.19,127.93,375.6,132.13,364.08,132.13Zm-.85-85.52a37,37,0,1,0,28.87,60.76V59.89A37.1,37.1,0,0,0,363.23,46.61Z"/></svg>