<?xml version="1.0" encoding="UTF-8"?>
<svg width="159px" height="29px" viewBox="0 0 159 29" version="1.1" xmlns="http://www.w3.org/2000/svg" xmlns:xlink="http://www.w3.org/1999/xlink">
    <!-- Generator: Sketch 46.2 (44496) - http://www.bohemiancoding.com/sketch -->
    <title>CodePen</title>
    <desc>Created with Sketch.</desc>
    <defs></defs>
    <g id="Symbols" stroke="none" stroke-width="1" fill="none" fill-rule="evenodd">
        <g id="CodePen" fill-rule="nonzero" fill="#000000">
            <g id="Shape">
                <path d="M9.74174029,7.69188724 C11.481867,7.69188724 13.0774134,8.33786067 14.3153818,9.40520754 L16,7.34405539 C14.3063456,5.88249909 12.1227964,5 9.74174029,5 C4.37032555,5 0,9.48603704 0,14.9996687 C0,20.5133004 4.37032555,25 9.74174029,25 C12.1227964,25 14.3063456,24.1175009 16,22.6552821 L14.3153818,20.5947925 C13.0774134,21.6628019 11.481867,22.3074502 9.74174029,22.3074502 C5.81677357,22.3074502 2.62309896,19.0292179 2.62309896,15.0003313 C2.62309896,10.9714447 5.81677357,7.69188724 9.74174029,7.69188724 Z"></path>
                <path d="M65.6668307,5 L60.3334974,5 C59.5971863,5 59,5.60788243 59,6.35671343 L59,22.6432866 C59,23.3934536 59.5971863,24 60.3334974,24 L65.6668307,24 C70.8131332,24 75,19.738811 75,14.498998 C75,9.26052104 70.8131332,5 65.6668307,5 Z M65.6668307,21.2865731 L61.6663385,21.2865731 L61.6663385,7.71543086 L65.6668307,7.71543086 C69.343136,7.71543086 72.3336615,10.759519 72.3336615,14.501002 C72.3336615,18.242485 69.3424798,21.2865731 65.6668307,21.2865731 Z"></path>
                <path d="M82,6.35609361 L82,22.6432389 C82,23.3934323 82.6238135,24 83.3929551,24 L95,24 L95,21.2858098 L84.7865957,21.2858098 L84.7865957,15.8567614 L91.2859101,15.8567614 L91.2859101,13.1425712 L84.7865957,13.1425712 L84.7865957,7.71352273 L95,7.71352273 L95,5.00000055 L83.3929551,5.00000055 C82.6244991,4.99933252 82,5.60723631 82,6.35609361 Z"></path>
                <path d="M123,6.35609361 L123,22.6432389 C123,23.3934323 123.622475,24 124.392343,24 L136,24 L136,21.2858098 L125.786057,21.2858098 L125.786057,15.8567614 L132.285714,15.8567614 L132.285714,13.1425712 L125.786057,13.1425712 L125.786057,7.71352273 L136,7.71352273 L136,5.00000055 L124.392343,5.00000055 C123.624532,4.99933252 123,5.60723631 123,6.35609361 Z"></path>
                <path d="M110.428963,5 L104.393102,5 C103.623879,5 103,5.60783969 103,6.35661803 L103,24 L105.785518,24 L105.785518,15.856952 L110.428278,15.856952 C113.499684,15.856952 116,13.4215855 116,10.428476 C116,7.4353665 113.50174,5 110.428963,5 Z M110.428963,13.1417121 L105.78689,13.1417121 L105.78689,7.71323607 L110.428963,7.71323607 C111.966037,7.71323607 113.214482,8.93025136 113.214482,10.4271401 C113.215167,11.9253647 111.966037,13.1417121 110.428963,13.1417121 Z"></path>
                <path d="M156.333224,5.0000582 L156.333224,18.8936738 L145.358364,5.48831516 C144.998113,5.0488171 144.408194,4.88651007 143.879301,5.08154568 C143.351064,5.27658129 143,5.78621201 143,6.35729232 L143,24 L145.66612,24 L145.66612,10.1063844 L156.641636,23.5110751 C156.900833,23.827674 157.277488,23.9993321 157.666612,23.9993321 C157.818193,23.9993321 157.972399,23.9719469 158.119386,23.9171767 C158.64828,23.722809 159,23.2125103 159,22.64143 L159,5.0000582 L156.333224,5.0000582 Z"></path>
                <path d="M51.9799276,9.86572416 C51.9732367,9.83026181 51.9665459,9.79546857 51.9578479,9.76134443 C51.9524952,9.74060231 51.9444662,9.72119838 51.9384445,9.70045626 C51.9284083,9.66967762 51.9190411,9.63956808 51.9069977,9.60945855 C51.8976305,9.58871642 51.8889325,9.5686434 51.8788962,9.54923947 C51.8648455,9.52046814 51.8514639,9.49303501 51.8367441,9.46560187 C51.8247006,9.44686705 51.8133263,9.42746313 51.8006137,9.4080592 C51.7845558,9.38196427 51.7664906,9.35787664 51.7484254,9.33311991 C51.7343746,9.31572329 51.7203239,9.29698847 51.7056041,9.27959185 C51.6862008,9.25617332 51.6647902,9.23476209 51.6440486,9.21201267 C51.6273216,9.19528515 51.6112636,9.17922673 51.5938675,9.16316831 C51.5717878,9.14242618 51.5477009,9.12302226 51.523614,9.10361834 C51.5055488,9.08956722 51.4868145,9.074847 51.4674111,9.06146498 C51.4607203,9.05611218 51.4540295,9.05009027 51.4466696,9.04674477 L38.1921648,0.209261278 C37.7733198,-0.0697537594 37.2286874,-0.0697537594 36.8105115,0.209261278 L23.5539995,9.04473746 C23.5466396,9.05009027 23.5406179,9.05611218 23.533927,9.06012678 C23.5145237,9.0735088 23.4957894,9.08822902 23.4770551,9.10294923 C23.4529682,9.12101496 23.4295503,9.14108798 23.4068016,9.16183011 C23.3900745,9.17721942 23.3733475,9.19327784 23.3572895,9.21000536 C23.3358789,9.23208569 23.3158065,9.25416602 23.2950649,9.27825365 C23.2803452,9.29498117 23.2662944,9.31371599 23.2529128,9.33178171 C23.2341785,9.35653844 23.2167824,9.38129517 23.2000554,9.4073901 C23.1880119,9.42679403 23.1759684,9.44552885 23.1645941,9.46493277 C23.1492052,9.49236591 23.1351545,9.51979904 23.1224419,9.54723217 C23.1124057,9.5679743 23.1037076,9.58804732 23.0943405,9.60812035 C23.082297,9.63756078 23.0722608,9.66833942 23.0622246,9.69911806 C23.0555338,9.71986018 23.0481739,9.73993321 23.0434903,9.76067533 C23.0341232,9.79479947 23.0281014,9.82892361 23.0214106,9.86438596 C23.0180652,9.88178258 23.0140507,9.9005174 23.0113744,9.91791402 C23.0040145,9.97211119 23,10.0256393 23,10.0811746 L23,18.917989 C23,18.9721862 23.0040145,19.0270524 23.0113744,19.0805805 C23.0140507,19.0979771 23.0180652,19.1167119 23.0214106,19.1341086 C23.0281014,19.1695709 23.0347922,19.2036951 23.0434903,19.2378192 C23.048843,19.2585613 23.0562028,19.2779652 23.0622246,19.2987074 C23.0722608,19.3301551 23.082297,19.3602646 23.0943405,19.3903742 C23.1037076,19.4111163 23.1124057,19.4311893 23.1224419,19.4512624 C23.1358235,19.4793646 23.1492052,19.5067977 23.1645941,19.5342309 C23.1759684,19.5536348 23.1880119,19.5730387 23.2000554,19.5917735 C23.2167824,19.6178685 23.2341785,19.6426252 23.2529128,19.6673819 C23.2669635,19.6854476 23.2803452,19.7035134 23.2950649,19.72091 C23.3151374,19.7443285 23.3358789,19.7657397 23.3572895,19.7891583 C23.3733475,19.8058858 23.3900745,19.8219442 23.4068016,19.8373335 C23.4295503,19.8580756 23.4529682,19.8774796 23.4770551,19.8962144 C23.4957894,19.9102655 23.5145237,19.9256548 23.533927,19.9390368 C23.5412869,19.9443896 23.5473087,19.9504116 23.5539995,19.9537571 L36.8091733,28.7905714 C37.0179268,28.9304135 37.2587961,29 37.4996655,29 C37.7405348,29 37.9820732,28.9304135 38.1908267,28.7905714 L51.4453314,19.9537571 C51.4533604,19.9490734 51.4593821,19.9423823 51.466073,19.9390368 C51.4854763,19.9249857 51.5042106,19.9102655 51.5222758,19.8962144 C51.5463627,19.8774796 51.5704497,19.8580756 51.5925294,19.8373335 C51.6099255,19.8219442 51.6259834,19.8058858 51.6427105,19.7891583 C51.663452,19.7670779 51.6841935,19.7449976 51.704266,19.72091 C51.7189858,19.7035134 51.7337056,19.6854476 51.7470872,19.6673819 C51.7651524,19.6426252 51.7832176,19.6178685 51.7992755,19.5917735 C51.8119881,19.5730387 51.8233625,19.5536348 51.8354059,19.5342309 C51.8501257,19.5067977 51.8641765,19.4793646 51.8775581,19.4512624 C51.8875943,19.4311893 51.8962924,19.4111163 51.9056595,19.3903742 C51.917703,19.3602646 51.9270701,19.3301551 51.9371063,19.2987074 C51.9437972,19.2779652 51.951157,19.2585613 51.9565097,19.2378192 C51.9658768,19.2036951 51.9718986,19.1689018 51.9785894,19.1341086 C51.9812657,19.1167119 51.9859493,19.0979771 51.9886256,19.0805805 C51.9953164,19.0270524 52,18.9721862 52,18.917989 L52,10.0811746 C52,10.0256393 51.9953164,9.97211119 51.9886256,9.91791402 C51.9866184,9.9025247 51.9826039,9.88378988 51.9799276,9.86572416 Z M37.4996655,17.4486436 L33.0924255,14.5012546 L37.4996655,11.5531964 L41.9075745,14.5012546 L37.4996655,17.4486436 Z M36.2538357,9.38798618 L30.8510025,13.0017997 L26.4899292,10.0845201 L36.2538357,3.57483835 L36.2538357,9.38798618 Z M28.6095794,14.5012546 L25.4916596,16.5861727 L25.4916596,12.4156673 L28.6095794,14.5012546 Z M30.8510025,16.0000404 L36.2538357,19.6131847 L36.2538357,25.4263326 L26.4899292,18.9166508 L30.8510025,16.0000404 Z M38.7454952,19.6131847 L44.1483284,16.0000404 L48.5100708,18.9166508 L38.7454952,25.4263326 L38.7454952,19.6131847 L38.7454952,19.6131847 Z M46.3904206,14.5012546 L49.5083404,12.4156673 L49.5083404,16.5855036 L46.3904206,14.5012546 Z M44.1489975,13.0011305 L38.7461643,9.38798618 L38.7461643,3.57483835 L48.5107399,10.0845201 L44.1489975,13.0011305 Z"></path>
            </g>
        </g>
    </g>
</svg>