<?xml version="1.0" encoding="UTF-8"?>
<svg width="95px" height="26px" viewBox="0 0 95 26" version="1.1" xmlns="http://www.w3.org/2000/svg" xmlns:xlink="http://www.w3.org/1999/xlink">
    <!-- Generator: Sketch 46.2 (44496) - http://www.bohemiancoding.com/sketch -->
    <title>GitHub</title>
    <desc>Created with Sketch.</desc>
    <defs></defs>
    <g id="Symbols" stroke="none" stroke-width="1" fill="none" fill-rule="evenodd">
        <g id="GitHub" transform="translate(0.000000, -3.000000)" fill-rule="nonzero" fill="#171515">
            <g transform="translate(0.000000, 3.000000)" id="Shape">
                <path d="M39.416704,21.5342949 L39.3741603,21.5342949 C39.393305,21.5342949 39.4060681,21.5557647 39.4252127,21.5579116 L39.4379758,21.5579116 L39.416704,21.5364419 L39.416704,21.5342949 Z M39.4252127,21.5579116 C39.2273847,21.5600586 38.7296238,21.6652603 38.2042096,21.6652603 C36.5450067,21.6652603 35.9706673,20.8923498 35.9706673,19.8832722 L35.9706673,13.1610979 L39.3528885,13.1610979 C39.544335,13.1610979 39.6932378,12.98934 39.6932378,12.753173 L39.6932378,9.10331785 C39.6932378,8.91009023 39.5230631,8.73833234 39.3528885,8.73833234 L35.9706673,8.73833234 L35.9706673,4.20821807 C35.9706673,4.03646018 35.8643081,3.9291115 35.6728616,3.9291115 L31.078146,3.9291115 C30.8866995,3.9291115 30.7803403,4.03646018 30.7803403,4.20821807 L30.7803403,8.86715076 C30.7803403,8.86715076 28.4617107,9.44683363 28.3128079,9.46830336 C28.1426332,9.51124284 28.0362741,9.66153099 28.0362741,9.83328887 L28.0362741,12.753173 C28.0362741,12.98934 28.2064487,13.1610979 28.3978952,13.1610979 L30.7590685,13.1610979 L30.7590685,20.2031713 C30.7590685,25.4417869 34.3752799,25.9785303 36.8428124,25.9785303 C37.9702194,25.9785303 39.3316167,25.6135448 39.544335,25.5061961 C39.671966,25.4632566 39.7357815,25.3129685 39.7357815,25.1626803 L39.7357815,21.9422199 C39.74183,21.7533923 39.6095216,21.5887548 39.4252127,21.5557647 L39.4252127,21.5579116 Z M89.8309449,16.8345697 C89.8309449,12.9485476 88.2781012,12.4332739 86.6401702,12.6050318 C85.3638603,12.6909107 84.3428124,13.3350028 84.3428124,13.3350028 L84.3428124,20.8923498 C84.3428124,20.8923498 85.3851321,21.6223209 86.9379758,21.6652603 C89.1289745,21.7296695 89.8309449,20.9352893 89.8309449,16.8345697 Z M95,16.491054 C95,23.8551734 92.6388267,25.9592075 88.5120914,25.9592075 C85.023511,25.9592075 83.1515898,24.1772194 83.1515898,24.1772194 C83.1515898,24.1772194 83.0665025,25.1648273 82.9601433,25.2936457 C82.8963278,25.4224641 82.7899687,25.4654036 82.6623377,25.4654036 L79.5141066,25.4654036 C79.3013883,25.4654036 79.1099418,25.2936457 79.1099418,25.1004181 L79.1524854,1.24754149 C79.1524854,1.05431387 79.3226601,0.882555981 79.5141066,0.882555981 L84.0450067,0.882555981 C84.2364532,0.882555981 84.4066279,1.05431387 84.4066279,1.24754149 L84.4066279,9.34163192 C84.4066279,9.34163192 86.150918,8.20373592 88.7035378,8.20373592 L88.682266,8.16079645 C91.2348858,8.16079645 95,9.12693456 95,16.491054 L95,16.491054 Z M76.4509628,8.74047932 L71.9838782,8.74047932 C71.749888,8.74047932 71.6222571,8.9122372 71.6222571,9.1484043 L71.6222571,20.8279406 C71.6222571,20.8279406 70.4523063,21.6652603 68.8569189,21.6652603 C67.2615316,21.6652603 66.7935513,20.9352893 66.7935513,19.3250591 L66.7935513,9.12478759 C66.7935513,8.93155997 66.6233766,8.75980208 66.4319301,8.75980208 L61.8797582,8.75980208 C61.6883117,8.75980208 61.518137,8.93155997 61.518137,9.12478759 L61.518137,20.0958226 C61.518137,24.8191645 64.1345723,26 67.7295119,26 C70.6862965,26 73.0900134,24.3468303 73.0900134,24.3468303 C73.0900134,24.3468303 73.1963726,25.18415 73.2601881,25.3129685 C73.3027318,25.4203171 73.4516346,25.5061961 73.6005374,25.5061961 L76.4509628,25.5061961 C76.684953,25.5061961 76.812584,25.3344382 76.812584,25.1412106 L76.8551276,9.10331785 C76.8551276,8.91009023 76.684953,8.73833234 76.4509628,8.73833234 L76.4509628,8.74047932 Z M26.0367219,8.71900958 L21.5058218,8.71900958 C21.3143753,8.71900958 21.1442006,8.9122372 21.1442006,9.1484043 L21.1442006,24.9071904 C21.1442006,25.3365852 21.4207344,25.4868733 21.7823556,25.4868733 L25.8665472,25.4868733 C26.2919839,25.4868733 26.398343,25.2936457 26.398343,24.9071904 L26.398343,9.08184812 C26.398343,8.88862049 26.2281684,8.71686261 26.0367219,8.71686261 L26.0367219,8.71900958 Z M23.8031796,1.46223885 C22.1652485,1.46223885 20.8676668,2.77189274 20.8676668,4.4250624 C20.8676668,6.07823207 22.1652485,7.38788596 23.8031796,7.38788596 C25.398567,7.38788596 26.6961487,6.07823207 26.6961487,4.4250624 C26.6961487,2.77189274 25.398567,1.46223885 23.8031796,1.46223885 Z M58.8804299,0.925495453 L54.3920734,0.925495453 C54.200627,0.925495453 54.0304523,1.09725334 54.0304523,1.29048096 L54.0304523,10.0716029 L46.989476,10.0716029 L46.989476,1.28833399 C46.989476,1.09510637 46.8193014,0.923348479 46.6278549,0.923348479 L42.0969548,0.923348479 C41.9055083,0.923348479 41.7353336,1.09510637 41.7353336,1.28833399 L41.7353336,25.1412106 C41.7353336,25.3344382 41.9267801,25.5061961 42.0969548,25.5061961 L46.6278549,25.5061961 C46.8193014,25.5061961 46.989476,25.3344382 46.989476,25.1412106 L46.989476,14.943086 L54.0304523,14.943086 L53.9879086,25.1412106 C53.9879086,25.3344382 54.1580833,25.5061961 54.3495298,25.5061961 L58.8804299,25.5061961 C59.0718764,25.5061961 59.2420511,25.3344382 59.2420511,25.1412106 L59.2420511,1.28833399 C59.2420511,1.09510637 59.0718764,0.923348479 58.8804299,0.923348479 L58.8804299,0.925495453 Z M18.7404837,11.4864585 L18.7404837,23.8100869 C18.7404837,23.8959659 18.7192118,24.046254 18.6128527,24.0891935 C18.6128527,24.0891935 15.9538737,26 11.5718764,26 C6.27519033,26 0,24.3253606 0,13.2899164 C0,2.2544721 5.48813256,-0.0213199001 10.8486341,0.000149835815 C15.4858934,0.000149835815 17.3578146,1.05216689 17.6556202,1.24539452 C17.7407076,1.3527432 17.7832512,1.43862214 17.7832512,1.54597082 L16.8898343,5.36758381 C16.8898343,5.56081143 16.6983878,5.79697853 16.4643977,5.73256932 C15.6986117,5.49640222 14.5499328,5.02406803 11.8484102,5.02406803 C8.72145096,5.02406803 5.36050157,5.92579694 5.36050157,13.0322795 C5.36050157,20.1387621 8.55127631,20.9760818 10.8486341,20.9760818 C12.8056426,20.9760818 13.5076131,20.7399147 13.5076131,20.7399147 L13.5076131,15.8018755 L10.3806538,15.8018755 C10.1466637,15.8018755 9.97648903,15.6301176 9.97648903,15.4368899 L9.97648903,11.4864585 C9.97648903,11.2932309 10.1466637,11.121473 10.3806538,11.121473 L18.3363189,11.121473 C18.570309,11.121473 18.7404837,11.2932309 18.7404837,11.4864585 Z"></path>
            </g>
        </g>
    </g>
</svg>
