<?xml version="1.0" encoding="UTF-8"?>
<svg width="175px" height="26px" viewBox="0 0 175 26" version="1.1" xmlns="http://www.w3.org/2000/svg" xmlns:xlink="http://www.w3.org/1999/xlink">
    <!-- Generator: Sketch 46.2 (44496) - http://www.bohemiancoding.com/sketch -->
    <title>Hatena Blog</title>
    <desc>Created with Sketch.</desc>
    <defs></defs>
    <g id="Symbols" stroke="none" stroke-width="1" fill="none" fill-rule="evenodd">
        <g id="Hatena" transform="translate(0.000000, -3.000000)" fill-rule="nonzero" fill="#3D3F44">
            <path d="M126.533333,5.47619048 L130.12381,5.47619048 C131.609524,5.47619048 132.6,5.6 133.466667,5.97142857 C134.209524,6.34285714 134.828571,6.83809524 135.32381,7.58095238 C135.819048,8.32380952 135.942857,9.06666667 135.942857,9.93333333 C135.942857,10.8 135.695238,11.4190476 135.32381,12.1619048 C134.952381,12.7809524 134.333333,13.4 133.590476,13.7714286 C134.580952,14.1428571 135.2,14.5142857 135.695238,14.8857143 C136.190476,15.2571429 136.561905,15.8761905 136.933333,16.4952381 C137.180952,17.1142857 137.304762,17.7333333 137.304762,18.4761905 C137.304762,19.9619048 136.809524,21.2 135.695238,22.1904762 C134.580952,23.1809524 133.219048,23.6761905 131.485714,23.6761905 L126.533333,23.6761905 L126.533333,5.47619048 L126.533333,5.47619048 Z M128.266667,7.33333333 L128.266667,13.152381 L129.257143,13.152381 C130.495238,13.152381 131.485714,13.0285714 131.980952,12.7809524 C132.6,12.5333333 133.095238,12.1619048 133.342857,11.6666667 C133.714286,11.1714286 133.838095,10.552381 133.838095,9.93333333 C133.838095,9.06666667 133.590476,8.44761905 132.971429,7.95238095 C132.352381,7.45714286 131.485714,7.20952381 130.247619,7.20952381 L128.266667,7.20952381 L128.266667,7.33333333 Z M128.266667,15.0095238 L128.266667,21.9428571 L130.495238,21.9428571 C131.857143,21.9428571 132.72381,21.8190476 133.342857,21.5714286 C133.961905,21.3238095 134.457143,20.952381 134.828571,20.3333333 C135.2,19.8380952 135.447619,19.2190476 135.447619,18.6 C135.447619,17.7333333 135.2,17.1142857 134.704762,16.4952381 C134.209524,15.8761905 133.466667,15.5047619 132.6,15.2571429 C131.980952,15.1333333 130.866667,15.0095238 129.380952,15.0095238 L128.266667,15.0095238 Z M140.4,5.47619048 L142.133333,5.47619048 L142.133333,23.6761905 L140.4,23.6761905 L140.4,5.47619048 Z M152.038095,9.93333333 C154.142857,9.93333333 155.752381,10.6761905 157.114286,12.1619048 C158.352381,13.5238095 158.971429,15.1333333 158.971429,16.9904762 C158.971429,18.847619 158.352381,20.4571429 156.990476,21.9428571 C155.752381,23.3047619 154.019048,24.047619 152.038095,24.047619 C149.933333,24.047619 148.32381,23.3047619 146.961905,21.9428571 C145.72381,20.5809524 144.980952,18.847619 144.980952,16.9904762 C144.980952,15.1333333 145.6,13.5238095 146.838095,12.1619048 C148.32381,10.6761905 149.933333,9.93333333 152.038095,9.93333333 Z M152.038095,11.6666667 C150.552381,11.6666667 149.438095,12.1619048 148.32381,13.2761905 C147.333333,14.3904762 146.838095,15.6285714 146.838095,17.1142857 C146.838095,18.1047619 147.085714,18.9714286 147.580952,19.8380952 C148.07619,20.7047619 148.695238,21.3238095 149.438095,21.8190476 C150.180952,22.3142857 151.047619,22.5619048 152.038095,22.5619048 C153.028571,22.5619048 153.895238,22.3142857 154.638095,21.8190476 C155.380952,21.3238095 156.12381,20.7047619 156.495238,19.8380952 C156.990476,18.9714286 157.238095,18.1047619 157.238095,17.1142857 C157.238095,15.6285714 156.742857,14.2666667 155.752381,13.2761905 C154.638095,12.1619048 153.4,11.6666667 152.038095,11.6666667 L152.038095,11.6666667 Z M172.961905,10.3047619 L174.571429,10.3047619 L174.571429,21.0761905 C174.571429,22.9333333 174.447619,24.2952381 174.07619,25.1619048 C173.580952,26.4 172.838095,27.3904762 171.847619,28.0095238 C170.733333,28.6285714 169.495238,29 168.009524,29 C166.895238,29 165.904762,28.8761905 165.038095,28.5047619 C164.171429,28.1333333 163.428571,27.7619048 162.933333,27.1428571 C162.438095,26.647619 161.819048,25.7809524 161.447619,24.7904762 L163.304762,24.7904762 C163.8,25.6571429 164.419048,26.4 165.161905,26.7714286 C165.904762,27.1428571 166.895238,27.3904762 168.009524,27.3904762 C169.12381,27.3904762 170.114286,27.1428571 170.857143,26.7714286 C171.6,26.2761905 172.219048,25.7809524 172.590476,25.1619048 C172.961905,24.5428571 173.085714,23.4285714 173.085714,21.9428571 L173.085714,21.2 C172.466667,22.0666667 171.72381,22.6857143 170.733333,23.0571429 C169.866667,23.552381 168.87619,23.6761905 167.885714,23.6761905 C166.647619,23.6761905 165.533333,23.4285714 164.542857,22.8095238 C163.552381,22.1904762 162.685714,21.3238095 162.066667,20.3333333 C161.447619,19.3428571 161.2,18.1047619 161.2,16.8666667 C161.2,15.6285714 161.447619,14.5142857 162.066667,13.4 C162.685714,12.2857143 163.428571,11.4190476 164.542857,10.8 C165.533333,10.1809524 166.647619,9.80952381 167.885714,9.80952381 C168.87619,9.80952381 169.742857,10.0571429 170.609524,10.4285714 C171.47619,10.8 172.219048,11.5428571 173.085714,12.5333333 L173.085714,10.3047619 L172.961905,10.3047619 Z M168.009524,11.5428571 C167.019048,11.5428571 166.152381,11.7904762 165.409524,12.2857143 C164.542857,12.7809524 163.92381,13.4 163.552381,14.2666667 C163.057143,15.1333333 162.809524,16 162.809524,16.9904762 C162.809524,18.4761905 163.304762,19.7142857 164.295238,20.7047619 C165.285714,21.6952381 166.52381,22.1904762 168.009524,22.1904762 C169.495238,22.1904762 170.733333,21.6952381 171.72381,20.7047619 C172.714286,19.7142857 173.085714,18.4761905 173.085714,16.9904762 C173.085714,16 172.838095,15.0095238 172.466667,14.2666667 C172.095238,13.5238095 171.47619,12.7809524 170.609524,12.4095238 C169.742857,11.7904762 168.87619,11.5428571 168.009524,11.5428571 Z M32.5619048,6.0952381 L34.4190476,6.0952381 L34.4190476,13.647619 L44.447619,13.647619 L44.447619,6.0952381 L46.3047619,6.0952381 L46.3047619,24.2952381 L44.447619,24.2952381 L44.447619,15.5047619 L34.4190476,15.5047619 L34.4190476,24.2952381 L32.5619048,24.2952381 L32.5619048,6.0952381 L32.5619048,6.0952381 Z M62.647619,10.8 L62.647619,24.1714286 L60.9142857,24.1714286 L60.9142857,21.8190476 C60.1714286,22.6857143 59.4285714,23.3047619 58.4380952,23.8 C57.5714286,24.2952381 56.5809524,24.4190476 55.4666667,24.4190476 C53.6095238,24.4190476 52,23.6761905 50.6380952,22.3142857 C49.2761905,20.952381 48.6571429,19.2190476 48.6571429,17.2380952 C48.6571429,15.2571429 49.2761905,13.647619 50.6380952,12.2857143 C52,10.9238095 53.6095238,10.1809524 55.4666667,10.1809524 C56.5809524,10.1809524 57.5714286,10.4285714 58.4380952,10.9238095 C59.3047619,11.4190476 60.047619,12.0380952 60.7904762,13.0285714 L60.7904762,10.552381 L62.647619,10.552381 L62.647619,10.8 Z M55.8380952,12.1619048 C54.847619,12.1619048 53.9809524,12.4095238 53.2380952,12.9047619 C52.4952381,13.4 51.752381,14.0190476 51.2571429,14.8857143 C50.7619048,15.752381 50.5142857,16.6190476 50.5142857,17.6095238 C50.5142857,18.6 50.7619048,19.4666667 51.2571429,20.3333333 C51.752381,21.2 52.3714286,21.8190476 53.2380952,22.3142857 C54.1047619,22.8095238 54.9714286,23.0571429 55.8380952,23.0571429 C56.8285714,23.0571429 57.6952381,22.8095238 58.4380952,22.3142857 C59.3047619,21.8190476 59.9238095,21.2 60.4190476,20.3333333 C60.9142857,19.4666667 61.0380952,18.6 61.0380952,17.6095238 C61.0380952,16 60.5428571,14.7619048 59.552381,13.7714286 C58.5619048,12.6571429 57.3238095,12.1619048 55.8380952,12.1619048 Z M67.9714286,5.84761905 L69.7047619,5.84761905 L69.7047619,10.8 L72.4285714,10.8 L72.4285714,12.2857143 L69.7047619,12.2857143 L69.7047619,24.1714286 L67.9714286,24.1714286 L67.9714286,12.2857143 L65.6190476,12.2857143 L65.6190476,10.8 L67.9714286,10.8 L67.9714286,5.84761905 Z M86.1714286,19.8380952 L87.6571429,20.5809524 C87.1619048,21.5714286 86.6666667,22.3142857 86.047619,22.8095238 C85.4285714,23.4285714 84.6857143,23.8 83.9428571,24.1714286 C83.2,24.4190476 82.3333333,24.6666667 81.3428571,24.6666667 C79.1142857,24.6666667 77.5047619,23.9238095 76.2666667,22.5619048 C75.0285714,21.0761905 74.4095238,19.4666667 74.4095238,17.7333333 C74.4095238,16 74.9047619,14.5142857 76.0190476,13.152381 C77.3809524,11.4190476 79.1142857,10.552381 81.3428571,10.552381 C83.5714286,10.552381 85.4285714,11.4190476 86.7904762,13.152381 C87.7809524,14.3904762 88.2761905,15.8761905 88.2761905,17.7333333 L76.2666667,17.7333333 C76.2666667,19.3428571 76.7619048,20.5809524 77.752381,21.5714286 C78.7428571,22.5619048 79.8571429,23.0571429 81.3428571,23.0571429 C81.9619048,23.0571429 82.7047619,22.9333333 83.3238095,22.6857143 C83.9428571,22.4380952 84.5619048,22.1904762 84.9333333,21.6952381 C85.1809524,21.3238095 85.6761905,20.7047619 86.1714286,19.8380952 L86.1714286,19.8380952 Z M86.1714286,16.247619 C85.9238095,15.3809524 85.552381,14.6380952 85.1809524,14.0190476 C84.6857143,13.5238095 84.1904762,13.0285714 83.447619,12.6571429 C82.7047619,12.2857143 81.9619048,12.1619048 81.2190476,12.1619048 C79.8571429,12.1619048 78.7428571,12.5333333 77.8761905,13.4 C77.1333333,14.0190476 76.6380952,14.8857143 76.2666667,16.1238095 L86.1714286,16.1238095 L86.1714286,16.247619 Z M90.752381,10.3047619 L92.4857143,10.3047619 L92.4857143,12.6571429 C93.2285714,11.7904762 93.9714286,11.047619 94.7142857,10.552381 C95.5809524,10.0571429 96.447619,9.80952381 97.4380952,9.80952381 C98.4285714,9.80952381 99.2952381,10.0571429 100.038095,10.552381 C100.780952,11.047619 101.4,11.7904762 101.771429,12.6571429 C102.142857,13.5238095 102.266667,14.8857143 102.266667,16.7428571 L102.266667,23.6761905 L100.533333,23.6761905 L100.533333,17.2380952 C100.533333,15.752381 100.409524,14.6380952 100.285714,14.1428571 C100.038095,13.2761905 99.6666667,12.5333333 99.1714286,12.1619048 C98.552381,11.6666667 97.9333333,11.5428571 96.9428571,11.5428571 C95.952381,11.5428571 94.9619048,11.9142857 94.2190476,12.5333333 C93.352381,13.2761905 92.8571429,14.0190476 92.6095238,15.1333333 C92.4857143,15.752381 92.3619048,16.9904762 92.3619048,18.847619 L92.3619048,23.8 L90.6285714,23.8 L90.6285714,10.3047619 L90.752381,10.3047619 Z M118.733333,10.3047619 L118.733333,23.6761905 L117,23.6761905 L117,21.3238095 C116.257143,22.1904762 115.514286,22.8095238 114.647619,23.3047619 C113.780952,23.8 112.790476,23.9238095 111.67619,23.9238095 C109.819048,23.9238095 108.209524,23.1809524 106.847619,21.8190476 C105.485714,20.4571429 104.866667,18.7238095 104.866667,16.7428571 C104.866667,14.7619048 105.485714,13.152381 106.847619,11.7904762 C108.209524,10.4285714 109.819048,9.68571429 111.67619,9.68571429 C112.790476,9.68571429 113.780952,9.93333333 114.647619,10.4285714 C115.514286,10.9238095 116.257143,11.5428571 117,12.5333333 L117,10.0571429 L118.733333,10.0571429 L118.733333,10.3047619 Z M111.92381,11.6666667 C110.933333,11.6666667 110.066667,11.9142857 109.32381,12.4095238 C108.457143,12.9047619 107.838095,13.5238095 107.342857,14.3904762 C106.847619,15.2571429 106.6,16.1238095 106.6,17.1142857 C106.6,18.1047619 106.847619,18.9714286 107.342857,19.8380952 C107.838095,20.7047619 108.457143,21.3238095 109.32381,21.8190476 C110.190476,22.3142857 111.057143,22.5619048 111.92381,22.5619048 C112.914286,22.5619048 113.780952,22.3142857 114.52381,21.8190476 C115.390476,21.3238095 116.009524,20.7047619 116.504762,19.8380952 C117,18.9714286 117.12381,18.1047619 117.12381,17.1142857 C117.12381,15.5047619 116.628571,14.2666667 115.638095,13.2761905 C114.647619,12.1619048 113.409524,11.6666667 111.92381,11.6666667 L111.92381,11.6666667 Z M12.2571429,27.7619048 C5.44761905,27.7619048 0,22.1904762 0,15.3809524 C0,8.57142857 5.44761905,3 12.2571429,3 C19.0666667,3 24.5142857,8.57142857 24.5142857,15.3809524 C24.5142857,22.1904762 19.0666667,27.7619048 12.2571429,27.7619048 Z M12.2571429,4.60952381 C6.31428571,4.60952381 1.60952381,9.43809524 1.60952381,15.3809524 C1.60952381,21.3238095 6.43809524,26.152381 12.2571429,26.152381 C18.2,26.152381 22.9047619,21.3238095 22.9047619,15.3809524 C23.0285714,9.43809524 18.2,4.60952381 12.2571429,4.60952381 Z M13.7428571,9.31428571 C13.1238095,8.07619048 12.752381,6.83809524 12.6285714,6.21904762 L12.6285714,15.0095238 C12.8761905,15.1333333 13.1238095,15.3809524 13.1238095,15.752381 C13.1238095,16.247619 12.752381,16.6190476 12.3809524,16.6190476 C11.8857143,16.6190476 11.6380952,16.247619 11.6380952,15.752381 C11.6380952,15.3809524 11.8857143,15.1333333 12.2571429,15.0095238 L12.2571429,6.21904762 C12.1333333,6.96190476 11.7619048,8.07619048 11.1428571,9.31428571 C9.9047619,11.1714286 8.79047619,12.9047619 8.79047619,12.9047619 L9.53333333,23.3047619 C9.53333333,23.3047619 10.2761905,24.047619 12.2571429,24.047619 C14.3619048,24.047619 14.9809524,23.3047619 14.9809524,23.3047619 L15.7238095,12.9047619 C15.847619,12.9047619 14.6095238,11.1714286 13.7428571,9.31428571 L13.7428571,9.31428571 Z" id="Hatena-Blog"></path>
        </g>
    </g>
</svg>