<?xml version="1.0" encoding="UTF-8"?>
<svg width="79px" height="24px" viewBox="0 0 79 24" version="1.1" xmlns="http://www.w3.org/2000/svg" xmlns:xlink="http://www.w3.org/1999/xlink">
    <!-- Generator: Sketch 46.2 (44496) - http://www.bohemiancoding.com/sketch -->
    <title>Flickr</title>
    <desc>Created with Sketch.</desc>
    <defs></defs>
    <g id="Symbols" stroke="none" stroke-width="1" fill="none" fill-rule="evenodd">
        <g id="Hatena" transform="translate(0.000000, -5.000000)">
            <g id="Flickr" transform="translate(0.000000, 5.000000)">
                <path d="M3.28422892,11.4302559 L0,11.4302559 L0,7.52833981 L3.37921825,7.52833981 L3.37921825,6.4810398 C3.37921825,1.67439368 5.68516621,0 10.2315522,0 C11.4653218,0 12.4130314,0.186520166 13.1390993,0.310866944 L12.7897133,4.15596945 C12.3169503,4.00053598 11.8441873,3.90513198 10.9881914,3.90513198 C9.53605563,3.90513198 8.97048696,4.89776229 8.97048696,6.4810398 L8.97048696,7.52833981 L13.0866914,7.52833981 L13.0866914,11.4302559 L8.97048696,11.4302559 L8.97048696,23.6291036 L3.28422892,23.6291036 L3.28422892,11.4302559 Z M15.2856399,0.367680557 L20.9740816,0.367680557 L20.9740816,23.6291036 L15.2856399,23.6291036 L15.2856399,0.367680557 Z M23.8106596,0.74072089 L29.4936422,0.74072089 L29.4936422,4.83558891 L23.8106596,4.83558891 L23.8106596,0.74072089 Z M23.8106596,7.51118853 L29.4936422,7.51118853 L29.4936422,23.6269597 L23.8106596,23.6269597 L23.8106596,7.51118853 Z M44.9135773,12.0905802 C43.8697865,11.4720622 42.830363,11.1944258 41.4743084,11.1944258 C39.0067694,11.1944258 37.1135337,12.8698915 37.1135337,15.6591183 C37.1135337,18.2296664 39.3234005,19.90406 41.7865722,19.90406 C43.0825761,19.90406 44.3763963,19.6274956 45.324106,19.1322524 L45.4518502,23.286078 C44.0302857,23.7502345 42.324845,24 40.8061075,24 C35.375338,24 31.2383888,20.8977623 31.2383888,15.5637143 C31.2383888,10.1975077 35.3764299,7.09848586 40.8061075,7.09848586 C42.51264,7.09848586 44.0291939,7.37933807 45.324106,7.99892805 L44.9124855,12.0895082 L44.9135773,12.0905802 Z M47.8200326,0.367680557 L53.504107,0.367680557 L53.504107,14.262361 L53.5663414,14.262361 L58.3048897,7.47259815 L64.5261452,7.47259815 L58.8114995,14.8862388 L65,23.6280316 L58.1149111,23.6280316 L53.5663414,15.6258877 L53.504107,15.6258877 L53.504107,23.6269597 L47.8200326,23.6269597 L47.8200326,0.365536647 L47.8200326,0.367680557 Z" id="Shape" fill="#0063DB" fill-rule="nonzero"></path>
                <path d="M76.7958072,11.7835927 C74.1494691,11.7835927 72.6662129,13.7316472 72.6662129,16.9850195 L72.6662129,24 L67,24 L67,7.38365759 L72.16526,7.38365759 L72.16526,10.445201 L72.2262456,10.445201 C73.2041928,8.33949416 74.6221073,7 77.0800436,7 C77.7410836,7 78.4358835,7.09370947 79,7.19182879 L78.7168527,11.976524 C78.0863055,11.7835927 77.4590253,11.7835927 76.7958072,11.7835927 Z" id="Path" fill="#FF0084"></path>
            </g>
        </g>
    </g>
</svg>