<?xml version="1.0" encoding="UTF-8"?>
<svg width="102px" height="22px" viewBox="0 0 102 22" version="1.1" xmlns="http://www.w3.org/2000/svg" xmlns:xlink="http://www.w3.org/1999/xlink">
    <!-- Generator: Sketch 46.2 (44496) - http://www.bohemiancoding.com/sketch -->
    <title>LIG inc</title>
    <desc>Created with Sketch.</desc>
    <defs></defs>
    <g id="Symbols" stroke="none" stroke-width="1" fill="none" fill-rule="evenodd">
        <g id="LIG-inc" transform="translate(0.000000, -7.000000)" fill-rule="nonzero" fill="#1F0705">
            <g transform="translate(0.000000, 7.000000)" id="Shape">
                <path d="M101.620563,21.5790977 C101.371753,21.8366648 101.07318,21.9623073 100.724844,21.9623073 C100.38273,21.9623073 100.084157,21.8366648 99.8353458,21.5790977 C99.5803147,21.3215306 99.4559093,21.0199886 99.4559093,20.6681896 C99.4559093,20.3163906 99.5803147,20.0148487 99.8353458,19.7635637 C100.084157,19.5059966 100.38273,19.3803541 100.724844,19.3803541 C101.07318,19.3803541 101.371753,19.5059966 101.620563,19.7635637 C101.869374,20.0148487 102,20.3163906 102,20.6681896 C102,21.0199886 101.869374,21.3215306 101.620563,21.5790977 Z M89.5905598,19.0159909 C89.8953531,19.3175328 90.2499085,19.5562536 90.6666667,19.7321531 C91.0772045,19.9080525 91.525064,19.9897202 92.0102452,19.9897202 C92.5700695,19.9897202 93.0739115,19.8452313 93.5279912,19.5562536 C93.8016831,19.3803541 94.0380534,19.173044 94.2308818,18.9406054 C94.4361508,18.6893204 94.8466886,18.6076528 95.1390413,18.7458595 C95.1390413,18.7458595 95.7237468,19.022273 95.7237468,19.022273 C96.1591658,19.2295831 96.2835712,19.7698458 95.9849982,20.1404911 C95.9290157,20.2095945 95.8730333,20.2786979 95.8170509,20.3478013 C95.5433589,20.6556254 95.2323454,20.9320388 94.8653494,21.1770417 C94.4983535,21.4157624 94.0815953,21.6105083 93.6088547,21.7549971 C93.1361142,21.9057681 92.6011709,21.9811536 92.0102452,21.9811536 C91.2078302,21.9811536 90.4551775,21.849229 89.7522869,21.5853798 C89.0556165,21.3215306 88.4522503,20.9508852 87.9421881,20.4734437 C87.4321259,19.9960023 87.0278083,19.424329 86.7292353,18.7521416 C86.4368825,18.0862364 86.287596,17.3449457 86.287596,16.5408338 C86.287596,15.7304397 86.4368825,14.9891491 86.7292353,14.3232439 C87.0278083,13.6573387 87.4321259,13.0793832 87.9421881,12.6019417 C88.4522503,12.1245003 89.0556165,11.7538549 89.7522869,11.4900057 C90.4551775,11.2261565 91.2078302,11.0942319 92.0102452,11.0942319 C92.6011709,11.0942319 93.1361142,11.1696174 93.6088547,11.3203883 C94.0815953,11.4648772 94.4983535,11.6596231 94.8653494,11.8920617 C95.2323454,12.1307824 95.5433589,12.4009138 95.8170509,12.71502 C95.8730333,12.7841234 95.9290157,12.8469446 95.9849982,12.916048 C96.2835712,13.2866933 96.1591658,13.8332381 95.7237468,14.0468304 C95.7237468,14.0468304 95.1328211,14.329526 95.1328211,14.329526 C94.8218075,14.480297 94.442371,14.4049115 94.2246615,14.1410623 C94.0318332,13.9086236 93.8016831,13.7075957 93.5279912,13.525414 C93.0739115,13.2301542 92.5700695,13.0856653 92.0102452,13.0856653 C91.525064,13.0856653 91.0772045,13.167333 90.6666667,13.3432324 C90.2499085,13.5191319 89.8953531,13.7578527 89.5905598,14.0719589 C89.2919868,14.379783 89.0556165,14.7441462 88.8938895,15.1650485 C88.7259422,15.5859509 88.6450787,16.044546 88.6450787,16.5408338 C88.6450787,17.0308395 88.7259422,17.4894346 88.8938895,17.9166191 C89.0556165,18.3438035 89.2919868,18.7081668 89.5905598,19.0159909 Z M80.6769118,22 C80.6769118,22 80.1917307,22 80.1917307,22 C79.7252104,22 79.2835712,21.7738435 79.0098793,21.3906339 C79.0098793,21.3906339 75.0040249,15.8309537 75.0040249,15.8309537 C74.7863154,15.5294118 74.3197951,15.6864649 74.3197951,16.0571102 C74.3197951,16.0571102 74.3197951,21.2838378 74.3197951,21.2838378 C74.3197951,21.6796117 74.0087816,22 73.6169045,22 C73.6169045,22 73.0508599,22 73.0508599,22 C72.4910355,22 72.0307355,21.5351228 72.0307355,20.9571673 C72.0307355,20.9571673 72.0307355,12.111936 72.0307355,12.111936 C72.0307355,11.5465448 72.4848152,11.0879497 73.0384193,11.0879497 C73.0384193,11.0879497 73.7164288,11.0879497 73.7164288,11.0879497 C74.1394072,11.0879497 74.5312843,11.2952599 74.7863154,11.6407767 C74.7863154,11.6407767 78.6802049,16.9994289 78.6802049,16.9994289 C78.8979144,17.3009709 79.3644347,17.1439178 79.3644347,16.7732724 C79.3644347,16.7732724 79.3644347,11.8041119 79.3644347,11.8041119 C79.3644347,11.4083381 79.6816685,11.0879497 80.0735456,11.0879497 C80.0735456,11.0879497 80.6831321,11.0879497 80.6831321,11.0879497 C81.2242956,11.0879497 81.6534943,11.5339806 81.6534943,12.0742433 C81.6534943,12.0742433 81.6534943,21.0074243 81.6534943,21.0074243 C81.6534943,21.5539692 81.2180754,22 80.6769118,22 Z M65.4932309,21.9937179 C65.4932309,21.9937179 64.3362605,21.9937179 64.3362605,21.9937179 C64.0998902,21.9937179 63.9070618,21.798972 63.9070618,21.5539692 C63.9070618,21.5539692 63.9070618,11.8103941 63.9070618,11.8103941 C63.9070618,11.4146202 64.2180754,11.100514 64.6037322,11.100514 C64.6037322,11.100514 65.7607025,11.100514 65.7607025,11.100514 C65.9970728,11.100514 66.1961215,11.2952599 66.1961215,11.5402627 C66.1961215,11.5402627 66.1961215,21.2775557 66.1961215,21.2775557 C66.1961215,21.6733295 65.8788877,21.9937179 65.4932309,21.9937179 Z M51.0870838,20.938321 C49.6377607,21.6419189 48.01427,21.9937179 46.1544091,21.9937179 C44.6304427,21.9937179 43.1873399,21.7298686 41.8375412,21.2147344 C40.4815221,20.6933181 39.2996707,19.9520274 38.2919868,18.9845802 C37.2905232,18.0171331 36.4943286,16.85494 35.9158434,15.4980011 C35.3311379,14.1410623 35.0387852,12.6333524 35.0387852,10.9811536 C35.0387852,9.32267276 35.3311379,7.81496288 35.9158434,6.45802399 C36.4943286,5.10108509 37.2905232,3.94517419 38.2919868,2.99029126 C39.2996707,2.03540834 40.4815221,1.30039977 41.8375412,0.778983438 C43.1873399,0.257567105 44.6304427,0 46.1544091,0 C47.186974,0 48.1386754,0.113078241 48.9970728,0.351798972 C49.8492499,0.584237579 50.6267838,0.898343804 51.3296744,1.28783552 C52.0263447,1.68360937 52.654592,2.14848658 53.2144164,2.68874929 C53.3823637,2.8458024 53.5378705,3.00913764 53.6933772,3.17247287 C54.2532016,3.78183895 54.0852543,4.7681325 53.3574826,5.17647059 C53.3574826,5.17647059 53.090011,5.3083952 53.090011,5.3083952 C53.090011,5.3083952 52.7976583,5.46544832 52.7976583,5.46544832 C52.1569704,5.82352941 51.3483352,5.72929754 50.8258324,5.20159909 C50.4339554,4.81838949 49.9860959,4.47287264 49.4946945,4.17761279 C49.4573729,4.15876642 49.4262715,4.13992005 49.3889499,4.12107367 C48.4372484,3.58081097 47.3611416,3.31067961 46.1544091,3.31067961 C45.096963,3.31067961 44.1203805,3.49914335 43.2308818,3.88235294 C42.3413831,4.26556254 41.5762898,4.79326099 40.9293816,5.47173044 C40.2824735,6.15019989 39.7786315,6.96687607 39.4054153,7.90919475 C39.0384193,8.85151342 38.8518112,9.87549971 38.8518112,10.9811536 C38.8518112,12.1056539 39.0384193,13.1296402 39.4054153,14.0656768 C39.7786315,15.0017133 40.2824735,15.8121074 40.9293816,16.5031411 C41.5762898,17.1941748 42.3413831,17.7281553 43.2308818,18.1113649 C44.1203805,18.4882924 45.096963,18.6830383 46.1544091,18.6830383 C47.2305159,18.6830383 48.3501647,18.4443175 49.2583242,18.0736722 C50.2100256,17.6904626 50.9875595,17.156482 51.3856568,16.7230154 C51.6095865,16.4842947 51.7277717,16.1701885 51.733992,15.843518 C51.733992,15.843518 51.7402122,15.1022273 51.7402122,15.1022273 C51.7464325,14.5494003 51.298573,14.0091376 50.7449689,14.0091376 C50.7449689,14.0091376 48.7296012,14.0091376 48.7296012,14.0091376 C47.8836443,14.0091376 46.9319429,13.5002856 46.8946213,12.664763 C46.9319429,11.8543689 47.852543,11.100514 48.6611782,11.100514 C48.6611782,11.100514 53.251738,11.100514 53.251738,11.100514 C54.1536773,11.100514 54.7570435,11.9423187 54.7570435,12.8469446 C54.7570435,12.8469446 54.7570435,16.0759566 54.7570435,16.0759566 C54.7570435,17.5459737 54.1412367,18.9594517 52.9469447,19.8201028 C52.356019,20.2410051 51.758873,20.6179326 51.0870838,20.938321 Z M25.0054885,22 C25.0054885,22 23.2140505,22 23.2140505,22 C22.6542261,22 22.2001464,21.5288407 22.2001464,20.9446031 C22.2001464,20.9446031 22.2001464,0.942318675 22.2001464,0.942318675 C22.2001464,0.458595089 22.5795829,0.062821245 23.0461032,0.062821245 C23.0461032,0.062821245 24.8313209,0.062821245 24.8313209,0.062821245 C25.4284669,0.062821245 25.913648,0.565391205 25.913648,1.18732153 C25.913648,1.18732153 25.913648,21.0576813 25.913648,21.0576813 C25.913648,21.5790977 25.5093304,22 25.0054885,22 Z M12.0175631,22 C12.0175631,22 1.28759605,22 1.28759605,22 C0.578485181,22 0,21.4031982 0,20.6681896 C0,20.6681896 0,1.18732153 0,1.18732153 C0,0.565391205 0.49140139,0.062821245 1.08854738,0.062821245 C1.08854738,0.062821245 2.73691914,0.062821245 2.73691914,0.062821245 C3.27808269,0.062821245 3.71972192,0.515134209 3.71972192,1.08052541 C3.71972192,1.08052541 3.71972192,17.4894346 3.71972192,17.4894346 C3.71972192,18.1113649 4.20490304,18.6139349 4.80204903,18.6139349 C4.80204903,18.6139349 12.1792902,18.6139349 12.1792902,18.6139349 C12.658251,18.6139349 13.0501281,19.0159909 13.0501281,19.5122787 C13.0501281,19.5122787 13.0501281,20.9257567 13.0501281,20.9257567 C13.0501281,21.5162764 12.589828,22 12.0175631,22 Z"></path>
            </g>
        </g>
    </g>
</svg>