<?xml version="1.0" encoding="UTF-8"?>
<svg width="78px" height="27px" viewBox="0 0 78 27" version="1.1" xmlns="http://www.w3.org/2000/svg" xmlns:xlink="http://www.w3.org/1999/xlink">
    <!-- Generator: Sketch 46.2 (44496) - http://www.bohemiancoding.com/sketch -->
    <title>Qiita</title>
    <desc>Created with Sketch.</desc>
    <defs></defs>
    <g id="Symbols" stroke="none" stroke-width="1" fill="none" fill-rule="evenodd">
        <g id="Qiita" transform="translate(0.000000, -2.000000)" fill-rule="nonzero" fill="#59BB0C">
            <g transform="translate(0.000000, 2.000000)" id="Shape">
                <path d="M20.2866429,23.2817143 C18.1391589,24.8209724 15.5635872,25.6491478 12.9214286,25.65 C9.32657143,25.65 6.01521429,24.2787857 3.59871429,21.7928571 C1.3002136,19.4102997 0.010910007,16.2319521 0,12.9214286 C0,4.833 6.47035714,0 12.7285714,0 C16.3234286,0 19.6347857,1.37121429 22.0493571,3.85714286 C26.841588,8.85597585 26.850087,16.7412769 22.0686429,21.7504286 L25.6365,25.3182857 L23.9837143,26.9710714 L20.2866429,23.2817143 Z M12.7285714,2.34514286 C7.6275,2.34514286 2.349,6.28907143 2.349,12.8886429 C2.349,18.0070714 6.29292857,23.3029286 12.8925,23.3029286 C17.9067857,23.3029286 23.3067857,19.2972857 23.3067857,12.825 C23.2990714,6.94285714 18.6550714,2.34514286 12.7285714,2.34514286 Z"></path>
                <path d="M31.6787143,25.056 L31.6787143,7.32857143 L33.8927143,7.32857143 L33.8927143,25.056 L31.6787143,25.056 Z M32.7529286,5.09335714 C31.7314698,5.07988169 30.9063916,4.25565854 30.8918571,3.23421429 C30.9241896,2.23021348 31.747443,1.43304511 32.7519643,1.43304511 C33.7564856,1.43304511 34.5797389,2.23021348 34.6120714,3.23421429 C34.5996087,4.25609977 33.7748006,5.08176345 32.7529286,5.09528571 L32.7529286,5.09335714 Z"></path>
                <path d="M40.5231429,25.056 L40.5231429,7.32857143 L42.7371429,7.32857143 L42.7371429,25.056 L40.5231429,25.056 Z M41.5992857,5.09528571 C40.5774002,5.08282294 39.7517366,4.25801487 39.7382143,3.23614286 C39.7382143,2.20936661 40.5705809,1.377 41.5973571,1.377 C42.6241334,1.377 43.4565,2.20936661 43.4565,3.23614286 C43.4430249,4.25653662 42.6196649,5.0807516 41.5992857,5.09528571 Z"></path>
                <path d="M55.7357143,25.4166429 C51.705,25.4166429 49.2942857,22.2402857 49.2942857,19.17 L49.2942857,2.48592857 L51.5082857,2.48592857 L51.5082857,7.32857143 L59.2322143,7.32857143 L59.2322143,9.54642857 L51.5140714,9.54642857 L51.5140714,19.1391429 C51.5199099,20.2379425 51.9679929,21.2880968 52.7572118,22.0526412 C53.5464307,22.8171857 54.6102833,23.2316974 55.7087143,23.2026429 C56.4541066,23.1973182 57.1852555,22.997914 57.8301429,22.6240714 L58.0789286,22.4813571 L59.184,24.381 L58.941,24.5275714 C57.9725247,25.1080871 56.8648472,25.415331 55.7357143,25.4166429 Z"></path>
                <path d="M70.2154286,25.4822143 C64.2985714,25.4822143 60.7654286,20.7765 60.7654286,16.2250714 C60.7654286,10.3082143 65.4711429,6.77507143 70.0225714,6.77507143 C72.36,6.77507143 74.2789286,7.56771429 75.6154286,9.07585714 L75.6154286,7.32857143 L77.8294286,7.32857143 L77.8294286,25.056 L75.6192857,25.056 L75.6192857,23.1274286 C74.2866429,24.6722143 72.4371429,25.4822143 70.2154286,25.4822143 Z M70.0515,8.98907143 C66.7564205,9.03448527 63.9210122,11.3303865 63.1912764,14.5439666 C62.4615405,17.7575466 64.0273026,21.0528603 66.9796119,22.5169235 C69.9319212,23.9809867 73.5027964,23.2329543 75.6192857,20.7070714 L75.6192857,11.5502143 C74.2414217,9.90463425 72.1976219,8.96450052 70.0515,8.98907143 Z"></path>
            </g>
        </g>
    </g>
</svg>